<svg id="Layer_1" data-name="Layer 1" xmlns="http://www.w3.org/2000/svg" xmlns:xlink="http://www.w3.org/1999/xlink" viewBox="0 0 1364.82 768.07"><defs><style>.cls-1{fill:url(#linear-gradient);}.cls-2{fill:url(#linear-gradient-2);}.cls-3{fill:url(#linear-gradient-3);}.cls-4{fill:url(#linear-gradient-4);}.cls-5{fill:url(#linear-gradient-5);}.cls-6{fill:url(#linear-gradient-6);}.cls-7{fill:url(#linear-gradient-7);}.cls-8{fill:url(#linear-gradient-8);}.cls-9{fill:url(#linear-gradient-9);}.cls-10{fill:url(#linear-gradient-10);}.cls-11{fill:url(#linear-gradient-11);}.cls-12{fill:url(#linear-gradient-12);}.cls-13{fill:url(#linear-gradient-13);}.cls-14{fill:url(#linear-gradient-14);}.cls-15{fill:url(#linear-gradient-15);}.cls-16{fill:url(#linear-gradient-16);}.cls-17{fill:url(#linear-gradient-17);}.cls-18{fill:url(#linear-gradient-18);}.cls-19{fill:url(#linear-gradient-19);}.cls-20{fill:url(#linear-gradient-20);}.cls-21{fill:url(#linear-gradient-21);}.cls-22{fill:url(#linear-gradient-22);}.cls-23{fill:url(#linear-gradient-23);}.cls-24{fill:url(#linear-gradient-24);}.cls-25{fill:url(#linear-gradient-25);}.cls-26{fill:url(#linear-gradient-26);}.cls-27{fill:url(#linear-gradient-27);}.cls-28{fill:url(#linear-gradient-28);}.cls-29{fill:url(#linear-gradient-29);}.cls-30{fill:url(#linear-gradient-30);}.cls-31{fill:url(#linear-gradient-31);}.cls-32{fill:url(#linear-gradient-32);}.cls-33{fill:url(#linear-gradient-33);}.cls-34{fill:url(#linear-gradient-34);}.cls-35{fill:url(#linear-gradient-35);}.cls-36{fill:url(#linear-gradient-36);}.cls-37{fill:url(#linear-gradient-37);}.cls-38{fill:url(#linear-gradient-38);}.cls-39{fill:url(#linear-gradient-39);}.cls-40{fill:url(#linear-gradient-40);}.cls-41{fill:url(#linear-gradient-41);}.cls-42{fill:url(#linear-gradient-42);}.cls-43{fill:url(#linear-gradient-43);}.cls-44{fill:url(#linear-gradient-44);}.cls-45{fill:url(#linear-gradient-45);}.cls-46{fill:url(#linear-gradient-46);}.cls-47{fill:url(#linear-gradient-47);}.cls-48{fill:url(#linear-gradient-48);}.cls-49{fill:url(#linear-gradient-49);}.cls-50{fill:url(#linear-gradient-50);}.cls-51{fill:url(#linear-gradient-51);}.cls-52{fill:url(#linear-gradient-52);}.cls-53{fill:url(#linear-gradient-53);}.cls-54{fill:url(#linear-gradient-54);}.cls-55{fill:url(#linear-gradient-55);}.cls-56{fill:url(#linear-gradient-56);}.cls-57{fill:url(#linear-gradient-57);}.cls-58{fill:url(#linear-gradient-58);}.cls-59{fill:url(#linear-gradient-59);}.cls-60{fill:url(#linear-gradient-60);}.cls-61{fill:url(#linear-gradient-61);}.cls-62{fill:url(#linear-gradient-62);}.cls-63{fill:url(#linear-gradient-63);}.cls-64{fill:url(#linear-gradient-64);}.cls-65{fill:url(#linear-gradient-65);}.cls-66{fill:url(#linear-gradient-66);}.cls-67{fill:url(#linear-gradient-67);}.cls-68{fill:url(#linear-gradient-68);}.cls-69{fill:url(#linear-gradient-69);}.cls-70{fill:url(#linear-gradient-70);}.cls-71{fill:url(#linear-gradient-71);}.cls-72{fill:url(#linear-gradient-72);}.cls-73{fill:url(#linear-gradient-73);}.cls-74{fill:url(#linear-gradient-74);}.cls-75{fill:url(#linear-gradient-75);}.cls-76{fill:url(#linear-gradient-76);}.cls-77{fill:url(#linear-gradient-77);}.cls-78{fill:url(#linear-gradient-78);}.cls-79{fill:url(#linear-gradient-79);}.cls-80{fill:url(#linear-gradient-80);}.cls-81{fill:url(#linear-gradient-81);}.cls-82{fill:url(#linear-gradient-82);}.cls-83{fill:url(#linear-gradient-83);}.cls-84{fill:url(#linear-gradient-84);}.cls-85{fill:url(#linear-gradient-85);}.cls-86{fill:url(#linear-gradient-86);}.cls-87{fill:url(#linear-gradient-87);}.cls-88{fill:url(#linear-gradient-88);}.cls-89{fill:url(#linear-gradient-89);}.cls-90{fill:url(#linear-gradient-90);}.cls-91{fill:url(#linear-gradient-91);}.cls-92{fill:url(#linear-gradient-92);}.cls-93{fill:url(#linear-gradient-93);}.cls-94{fill:url(#linear-gradient-94);}.cls-95{fill:url(#linear-gradient-95);}.cls-96{fill:url(#linear-gradient-96);}.cls-97{fill:url(#linear-gradient-97);}.cls-98{fill:url(#linear-gradient-98);}.cls-99{fill:url(#linear-gradient-99);}.cls-100{fill:url(#linear-gradient-100);}.cls-101{fill:url(#linear-gradient-101);}.cls-102{fill:url(#linear-gradient-102);}.cls-103{fill:url(#linear-gradient-103);}.cls-104{fill:url(#linear-gradient-104);}.cls-105{fill:url(#linear-gradient-105);}.cls-106{fill:url(#linear-gradient-106);}.cls-107{fill:url(#linear-gradient-107);}.cls-108{fill:url(#linear-gradient-108);}.cls-109{fill:url(#linear-gradient-109);}.cls-110{fill:url(#linear-gradient-110);}.cls-111{fill:url(#linear-gradient-111);}.cls-112{fill:url(#linear-gradient-112);}.cls-113{fill:url(#linear-gradient-113);}.cls-114{fill:url(#linear-gradient-114);}.cls-115{fill:url(#linear-gradient-115);}.cls-116{fill:url(#linear-gradient-116);}.cls-117{fill:url(#linear-gradient-117);}.cls-118{fill:url(#linear-gradient-118);}.cls-119{fill:url(#linear-gradient-119);}.cls-120{fill:url(#linear-gradient-120);}.cls-121{fill:url(#linear-gradient-121);}.cls-122{fill:url(#linear-gradient-122);}.cls-123{fill:url(#linear-gradient-123);}.cls-124{fill:url(#linear-gradient-124);}.cls-125{fill:url(#linear-gradient-125);}.cls-126{fill:url(#linear-gradient-126);}.cls-127{fill:url(#linear-gradient-127);}.cls-128{fill:url(#linear-gradient-128);}.cls-129{fill:url(#linear-gradient-129);}.cls-130{fill:url(#linear-gradient-130);}.cls-131{fill:url(#linear-gradient-131);}.cls-132{fill:url(#linear-gradient-132);}.cls-133{fill:url(#linear-gradient-133);}.cls-134{fill:url(#linear-gradient-134);}.cls-135{fill:url(#linear-gradient-135);}.cls-136{fill:url(#linear-gradient-136);}.cls-137{fill:url(#linear-gradient-137);}.cls-138{fill:url(#linear-gradient-138);}.cls-139{fill:url(#linear-gradient-139);}.cls-140{fill:url(#linear-gradient-140);}.cls-141{fill:url(#linear-gradient-141);}.cls-142{fill:url(#linear-gradient-142);}.cls-143{fill:url(#linear-gradient-143);}.cls-144{fill:url(#linear-gradient-144);}.cls-145{fill:url(#linear-gradient-145);}.cls-146{fill:url(#linear-gradient-146);}.cls-147{fill:url(#linear-gradient-147);}.cls-148{fill:url(#linear-gradient-148);}.cls-149{fill:url(#linear-gradient-149);}.cls-150{fill:url(#linear-gradient-150);}.cls-151{fill:url(#linear-gradient-151);}.cls-152{fill:url(#linear-gradient-152);}.cls-153{fill:url(#linear-gradient-153);}.cls-154{fill:url(#linear-gradient-154);}.cls-155{fill:url(#linear-gradient-155);}.cls-156{fill:url(#linear-gradient-156);}.cls-157{fill:url(#linear-gradient-157);}.cls-158{fill:url(#linear-gradient-158);}.cls-159{fill:url(#linear-gradient-159);}.cls-160{fill:url(#linear-gradient-160);}.cls-161{fill:url(#linear-gradient-161);}.cls-162{fill:url(#linear-gradient-162);}.cls-163{fill:url(#linear-gradient-163);}.cls-164{fill:url(#linear-gradient-164);}.cls-165{fill:url(#linear-gradient-165);}.cls-166{fill:url(#linear-gradient-166);}.cls-167{fill:url(#linear-gradient-167);}.cls-168{fill:url(#linear-gradient-168);}.cls-169{fill:url(#linear-gradient-169);}.cls-170{fill:url(#linear-gradient-170);}.cls-171{fill:url(#linear-gradient-171);}.cls-172{fill:url(#linear-gradient-172);}.cls-173{fill:url(#linear-gradient-173);}.cls-174{fill:url(#linear-gradient-174);}.cls-175{fill:url(#linear-gradient-175);}.cls-176{fill:url(#linear-gradient-176);}.cls-177{fill:url(#linear-gradient-177);}.cls-178{fill:url(#linear-gradient-178);}.cls-179{fill:url(#linear-gradient-179);}.cls-180{fill:url(#linear-gradient-180);}.cls-181{fill:url(#linear-gradient-181);}.cls-182{fill:url(#linear-gradient-182);}.cls-183{fill:url(#linear-gradient-183);}.cls-184{fill:url(#linear-gradient-184);}.cls-185{fill:url(#linear-gradient-185);}.cls-186{fill:url(#linear-gradient-186);}.cls-187{fill:url(#linear-gradient-187);}.cls-188{fill:url(#linear-gradient-188);}.cls-189{fill:url(#linear-gradient-189);}.cls-190{fill:url(#linear-gradient-190);}.cls-191{fill:url(#linear-gradient-191);}.cls-192{fill:url(#linear-gradient-192);}</style><linearGradient id="linear-gradient" x1="1206.85" y1="329.95" x2="1207.6" y2="329.95" gradientTransform="matrix(1, 0, 0, -1, -0.63, 768)" gradientUnits="userSpaceOnUse"><stop offset="0" stop-color="#a2a2a2"/><stop offset="1" stop-color="#222"/></linearGradient><linearGradient id="linear-gradient-2" x1="21.77" y1="514.86" x2="1297.86" y2="514.86" xlink:href="#linear-gradient"/><linearGradient id="linear-gradient-3" x1="0.63" y1="0.33" x2="1365.45" y2="0.33" xlink:href="#linear-gradient"/><linearGradient id="linear-gradient-4" x1="0.63" y1="334.37" x2="9.74" y2="334.37" xlink:href="#linear-gradient"/><linearGradient id="linear-gradient-5" x1="1140.57" y1="264.35" x2="1328.76" y2="264.35" xlink:href="#linear-gradient"/><linearGradient id="linear-gradient-6" x1="1061.57" y1="270.62" x2="1129.51" y2="270.62" xlink:href="#linear-gradient"/><linearGradient id="linear-gradient-7" x1="1135.64" y1="315.46" x2="1309.74" y2="315.46" xlink:href="#linear-gradient"/><linearGradient id="linear-gradient-8" x1="1240.18" y1="364.6" x2="1290.7" y2="364.6" xlink:href="#linear-gradient"/><linearGradient id="linear-gradient-9" x1="1012.21" y1="290.8" x2="1109.47" y2="290.8" xlink:href="#linear-gradient"/><linearGradient id="linear-gradient-10" x1="996.31" y1="298.93" x2="1109.26" y2="298.93" xlink:href="#linear-gradient"/><linearGradient id="linear-gradient-11" x1="1112.21" y1="223.41" x2="1130.46" y2="223.41" xlink:href="#linear-gradient"/><linearGradient id="linear-gradient-12" x1="1014.82" y1="254.23" x2="1054.2" y2="254.23" xlink:href="#linear-gradient"/><linearGradient id="linear-gradient-13" x1="979.75" y1="259.19" x2="1008.21" y2="259.19" xlink:href="#linear-gradient"/><linearGradient id="linear-gradient-14" x1="923.84" y1="275.02" x2="1005.94" y2="275.02" xlink:href="#linear-gradient"/><linearGradient id="linear-gradient-15" x1="1306.66" y1="364.93" x2="1330.5" y2="364.93" xlink:href="#linear-gradient"/><linearGradient id="linear-gradient-16" x1="812.2" y1="419.38" x2="834.34" y2="419.38" xlink:href="#linear-gradient"/><linearGradient id="linear-gradient-17" x1="998.53" y1="227.02" x2="1008.72" y2="227.02" xlink:href="#linear-gradient"/><linearGradient id="linear-gradient-18" x1="626.39" y1="227.62" x2="667.3" y2="227.62" xlink:href="#linear-gradient"/><linearGradient id="linear-gradient-19" x1="231.22" y1="239.93" x2="266.53" y2="239.93" xlink:href="#linear-gradient"/><linearGradient id="linear-gradient-20" x1="939.06" y1="251.96" x2="951.18" y2="251.96" xlink:href="#linear-gradient"/><linearGradient id="linear-gradient-21" x1="1135.11" y1="322.35" x2="1206.85" y2="322.35" xlink:href="#linear-gradient"/><linearGradient id="linear-gradient-22" x1="1206.85" y1="329.86" x2="1206.98" y2="329.86" xlink:href="#linear-gradient"/><linearGradient id="linear-gradient-23" x1="956.24" y1="250.72" x2="976.2" y2="250.72" xlink:href="#linear-gradient"/><linearGradient id="linear-gradient-24" x1="268.58" y1="240.21" x2="291.71" y2="240.21" xlink:href="#linear-gradient"/><linearGradient id="linear-gradient-25" x1="195.89" y1="239.64" x2="228.39" y2="239.64" xlink:href="#linear-gradient"/><linearGradient id="linear-gradient-26" x1="6.84" y1="386.24" x2="12.44" y2="386.24" xlink:href="#linear-gradient"/><linearGradient id="linear-gradient-27" x1="658.44" y1="322.11" x2="666" y2="322.11" xlink:href="#linear-gradient"/><linearGradient id="linear-gradient-28" x1="814.15" y1="411.04" x2="832.58" y2="411.04" xlink:href="#linear-gradient"/><linearGradient id="linear-gradient-29" x1="977.84" y1="277.18" x2="997.14" y2="277.18" xlink:href="#linear-gradient"/><linearGradient id="linear-gradient-30" x1="944.37" y1="228.56" x2="951.75" y2="228.56" xlink:href="#linear-gradient"/><linearGradient id="linear-gradient-31" x1="570.3" y1="285.25" x2="578.4" y2="285.25" xlink:href="#linear-gradient"/><linearGradient id="linear-gradient-32" x1="160.59" y1="239.28" x2="192.77" y2="239.28" xlink:href="#linear-gradient"/><linearGradient id="linear-gradient-33" x1="712.12" y1="228.58" x2="737.41" y2="228.58" xlink:href="#linear-gradient"/><linearGradient id="linear-gradient-34" x1="533.82" y1="285.5" x2="537.56" y2="285.5" xlink:href="#linear-gradient"/><linearGradient id="linear-gradient-35" x1="453.99" y1="283.58" x2="460.58" y2="283.58" xlink:href="#linear-gradient"/><linearGradient id="linear-gradient-36" x1="915.58" y1="245.89" x2="921.39" y2="245.89" xlink:href="#linear-gradient"/><linearGradient id="linear-gradient-37" x1="553.73" y1="285.37" x2="557.41" y2="285.37" xlink:href="#linear-gradient"/><linearGradient id="linear-gradient-38" x1="591.04" y1="286.27" x2="597.03" y2="286.27" xlink:href="#linear-gradient"/><linearGradient id="linear-gradient-39" x1="513.41" y1="285.51" x2="517.67" y2="285.51" xlink:href="#linear-gradient"/><linearGradient id="linear-gradient-40" x1="955.04" y1="271.28" x2="974.06" y2="271.28" xlink:href="#linear-gradient"/><linearGradient id="linear-gradient-41" x1="624.36" y1="325.53" x2="629.65" y2="325.53" xlink:href="#linear-gradient"/><linearGradient id="linear-gradient-42" x1="617.72" y1="327.29" x2="622.44" y2="327.29" xlink:href="#linear-gradient"/><linearGradient id="linear-gradient-43" x1="414.43" y1="283.11" x2="418.36" y2="283.11" xlink:href="#linear-gradient"/><linearGradient id="linear-gradient-44" x1="742.09" y1="317.97" x2="750.6" y2="317.97" xlink:href="#linear-gradient"/><linearGradient id="linear-gradient-45" x1="473.77" y1="284.83" x2="476.82" y2="284.83" xlink:href="#linear-gradient"/><linearGradient id="linear-gradient-46" x1="916.14" y1="228.7" x2="921.77" y2="228.7" xlink:href="#linear-gradient"/><linearGradient id="linear-gradient-47" x1="898.79" y1="240.59" x2="903.68" y2="240.59" xlink:href="#linear-gradient"/><linearGradient id="linear-gradient-48" x1="746" y1="293.12" x2="752.84" y2="293.12" xlink:href="#linear-gradient"/><linearGradient id="linear-gradient-49" x1="898.55" y1="227.77" x2="907.01" y2="227.77" xlink:href="#linear-gradient"/><linearGradient id="linear-gradient-50" x1="1329.84" y1="305.42" x2="1348.39" y2="305.42" xlink:href="#linear-gradient"/><linearGradient id="linear-gradient-51" x1="711.04" y1="317.3" x2="721.37" y2="317.3" xlink:href="#linear-gradient"/><linearGradient id="linear-gradient-52" x1="430.41" y1="238.82" x2="437.35" y2="238.82" xlink:href="#linear-gradient"/><linearGradient id="linear-gradient-53" x1="613.95" y1="285.79" x2="617.02" y2="285.79" xlink:href="#linear-gradient"/><linearGradient id="linear-gradient-54" x1="209.55" y1="329.87" x2="225.22" y2="329.87" xlink:href="#linear-gradient"/><linearGradient id="linear-gradient-55" x1="37.84" y1="456.87" x2="43.44" y2="456.87" xlink:href="#linear-gradient"/><linearGradient id="linear-gradient-56" x1="112.83" y1="316.13" x2="119.96" y2="316.13" xlink:href="#linear-gradient"/><linearGradient id="linear-gradient-57" x1="1082.64" y1="329.58" x2="1089.35" y2="329.58" xlink:href="#linear-gradient"/><linearGradient id="linear-gradient-58" x1="741.56" y1="228.35" x2="754.81" y2="228.35" xlink:href="#linear-gradient"/><linearGradient id="linear-gradient-59" x1="104.55" y1="345.39" x2="111.94" y2="345.39" xlink:href="#linear-gradient"/><linearGradient id="linear-gradient-60" x1="130.55" y1="238.5" x2="156.56" y2="238.5" xlink:href="#linear-gradient"/><linearGradient id="linear-gradient-61" x1="742.94" y1="328.71" x2="751.24" y2="328.71" xlink:href="#linear-gradient"/><linearGradient id="linear-gradient-62" x1="472.44" y1="238.67" x2="477.03" y2="238.67" xlink:href="#linear-gradient"/><linearGradient id="linear-gradient-63" x1="492.31" y1="239.21" x2="496.95" y2="239.21" xlink:href="#linear-gradient"/><linearGradient id="linear-gradient-64" x1="104.9" y1="362.78" x2="111.76" y2="362.78" xlink:href="#linear-gradient"/><linearGradient id="linear-gradient-65" x1="452.38" y1="238.86" x2="456.77" y2="238.86" xlink:href="#linear-gradient"/><linearGradient id="linear-gradient-66" x1="532.59" y1="238.93" x2="536.95" y2="238.93" xlink:href="#linear-gradient"/><linearGradient id="linear-gradient-67" x1="454.07" y1="256.13" x2="456.81" y2="256.13" xlink:href="#linear-gradient"/><linearGradient id="linear-gradient-68" x1="925.06" y1="245.7" x2="933.83" y2="245.7" xlink:href="#linear-gradient"/><linearGradient id="linear-gradient-69" x1="711.54" y1="326.82" x2="723.41" y2="326.82" xlink:href="#linear-gradient"/><linearGradient id="linear-gradient-70" x1="412.41" y1="238.33" x2="417.34" y2="238.33" xlink:href="#linear-gradient"/><linearGradient id="linear-gradient-71" x1="887.33" y1="238.47" x2="892.42" y2="238.47" xlink:href="#linear-gradient"/><linearGradient id="linear-gradient-72" x1="388.42" y1="372.62" x2="395.42" y2="372.62" xlink:href="#linear-gradient"/><linearGradient id="linear-gradient-73" x1="512.45" y1="239.74" x2="517.05" y2="239.74" xlink:href="#linear-gradient"/><linearGradient id="linear-gradient-74" x1="552.81" y1="238.99" x2="556.85" y2="238.99" xlink:href="#linear-gradient"/><linearGradient id="linear-gradient-75" x1="434.06" y1="287.9" x2="438.2" y2="287.9" xlink:href="#linear-gradient"/><linearGradient id="linear-gradient-76" x1="999.81" y1="313.9" x2="1006.89" y2="313.9" xlink:href="#linear-gradient"/><linearGradient id="linear-gradient-77" x1="480.45" y1="317.69" x2="493.74" y2="317.69" xlink:href="#linear-gradient"/><linearGradient id="linear-gradient-78" x1="1233.66" y1="337.13" x2="1254" y2="337.13" xlink:href="#linear-gradient"/><linearGradient id="linear-gradient-79" x1="102.46" y1="238.76" x2="120.88" y2="238.76" xlink:href="#linear-gradient"/><linearGradient id="linear-gradient-80" x1="710.83" y1="293.49" x2="717.02" y2="293.49" xlink:href="#linear-gradient"/><linearGradient id="linear-gradient-81" x1="626.9" y1="286.49" x2="629.35" y2="286.49" xlink:href="#linear-gradient"/><linearGradient id="linear-gradient-82" x1="513.8" y1="261" x2="516.69" y2="261" xlink:href="#linear-gradient"/><linearGradient id="linear-gradient-83" x1="1075.53" y1="330.01" x2="1082.26" y2="330.01" xlink:href="#linear-gradient"/><linearGradient id="linear-gradient-84" x1="1192.3" y1="372.23" x2="1200.36" y2="372.23" xlink:href="#linear-gradient"/><linearGradient id="linear-gradient-85" x1="433.79" y1="278.45" x2="438.84" y2="278.45" xlink:href="#linear-gradient"/><linearGradient id="linear-gradient-86" x1="574.13" y1="255.97" x2="575.66" y2="255.97" xlink:href="#linear-gradient"/><linearGradient id="linear-gradient-87" x1="473.33" y1="260.53" x2="476.83" y2="260.53" xlink:href="#linear-gradient"/><linearGradient id="linear-gradient-88" x1="532.51" y1="252.17" x2="536.66" y2="252.17" xlink:href="#linear-gradient"/><linearGradient id="linear-gradient-89" x1="493.66" y1="260.22" x2="496.55" y2="260.22" xlink:href="#linear-gradient"/><linearGradient id="linear-gradient-90" x1="493.14" y1="287.56" x2="497.17" y2="287.56" xlink:href="#linear-gradient"/><linearGradient id="linear-gradient-91" x1="493.36" y1="278.93" x2="497.7" y2="278.93" xlink:href="#linear-gradient"/><linearGradient id="linear-gradient-92" x1="870.42" y1="230.11" x2="881.96" y2="230.11" xlink:href="#linear-gradient"/><linearGradient id="linear-gradient-93" x1="932.56" y1="307.63" x2="937.79" y2="307.63" xlink:href="#linear-gradient"/><linearGradient id="linear-gradient-94" x1="1003.1" y1="303.28" x2="1006.98" y2="303.28" xlink:href="#linear-gradient"/><linearGradient id="linear-gradient-95" x1="1111.13" y1="306.49" x2="1115.8" y2="306.49" xlink:href="#linear-gradient"/><linearGradient id="linear-gradient-96" x1="1008.47" y1="301.34" x2="1012.65" y2="301.34" xlink:href="#linear-gradient"/><linearGradient id="linear-gradient-97" x1="513.32" y1="251.89" x2="516.39" y2="251.89" xlink:href="#linear-gradient"/><linearGradient id="linear-gradient-98" x1="343.87" y1="278" x2="346.74" y2="278" xlink:href="#linear-gradient"/><linearGradient id="linear-gradient-99" x1="553.93" y1="252.3" x2="556.87" y2="252.3" xlink:href="#linear-gradient"/><linearGradient id="linear-gradient-100" x1="407.31" y1="358.7" x2="411.06" y2="358.7" xlink:href="#linear-gradient"/><linearGradient id="linear-gradient-101" x1="351.19" y1="371.81" x2="364.21" y2="371.81" xlink:href="#linear-gradient"/><linearGradient id="linear-gradient-102" x1="533.78" y1="261.01" x2="536.67" y2="261.01" xlink:href="#linear-gradient"/><linearGradient id="linear-gradient-103" x1="395.09" y1="238.4" x2="397.41" y2="238.4" xlink:href="#linear-gradient"/><linearGradient id="linear-gradient-104" x1="493.2" y1="251.84" x2="496.31" y2="251.84" xlink:href="#linear-gradient"/><linearGradient id="linear-gradient-105" x1="473.53" y1="251.67" x2="476.18" y2="251.67" xlink:href="#linear-gradient"/><linearGradient id="linear-gradient-106" x1="749.2" y1="282.98" x2="752.6" y2="282.98" xlink:href="#linear-gradient"/><linearGradient id="linear-gradient-107" x1="433.49" y1="251.55" x2="436.98" y2="251.55" xlink:href="#linear-gradient"/><linearGradient id="linear-gradient-108" x1="710.66" y1="240.39" x2="713.09" y2="240.39" xlink:href="#linear-gradient"/><linearGradient id="linear-gradient-109" x1="433.95" y1="260.11" x2="436.97" y2="260.11" xlink:href="#linear-gradient"/><linearGradient id="linear-gradient-110" x1="414.4" y1="259.28" x2="417.7" y2="259.28" xlink:href="#linear-gradient"/><linearGradient id="linear-gradient-111" x1="961.43" y1="220.95" x2="967.22" y2="220.95" xlink:href="#linear-gradient"/><linearGradient id="linear-gradient-112" x1="695.95" y1="292.74" x2="697.67" y2="292.74" xlink:href="#linear-gradient"/><linearGradient id="linear-gradient-113" x1="1038.22" y1="302.51" x2="1040.71" y2="302.51" xlink:href="#linear-gradient"/><linearGradient id="linear-gradient-114" x1="323.81" y1="284.98" x2="326.32" y2="284.98" xlink:href="#linear-gradient"/><linearGradient id="linear-gradient-115" x1="1112.49" y1="242.05" x2="1119.89" y2="242.05" xlink:href="#linear-gradient"/><linearGradient id="linear-gradient-116" x1="343.86" y1="285.86" x2="347.41" y2="285.86" xlink:href="#linear-gradient"/><linearGradient id="linear-gradient-117" x1="928.69" y1="223.23" x2="935.72" y2="223.23" xlink:href="#linear-gradient"/><linearGradient id="linear-gradient-118" x1="656.23" y1="342.1" x2="663.82" y2="342.1" xlink:href="#linear-gradient"/><linearGradient id="linear-gradient-119" x1="283.69" y1="285.14" x2="286.3" y2="285.14" xlink:href="#linear-gradient"/><linearGradient id="linear-gradient-120" x1="664.6" y1="238.54" x2="667.07" y2="238.54" xlink:href="#linear-gradient"/><linearGradient id="linear-gradient-121" x1="111.59" y1="233.44" x2="122.29" y2="233.44" xlink:href="#linear-gradient"/><linearGradient id="linear-gradient-122" x1="745.68" y1="239.45" x2="747.46" y2="239.45" xlink:href="#linear-gradient"/><linearGradient id="linear-gradient-123" x1="554.28" y1="260.2" x2="556.48" y2="260.2" xlink:href="#linear-gradient"/><linearGradient id="linear-gradient-124" x1="616.03" y1="337.38" x2="624.31" y2="337.38" xlink:href="#linear-gradient"/><linearGradient id="linear-gradient-125" x1="1056.69" y1="318.49" x2="1062.25" y2="318.49" xlink:href="#linear-gradient"/><linearGradient id="linear-gradient-126" x1="1114.14" y1="319.09" x2="1121.09" y2="319.09" xlink:href="#linear-gradient"/><linearGradient id="linear-gradient-127" x1="1014.42" y1="317.18" x2="1019.98" y2="317.18" xlink:href="#linear-gradient"/><linearGradient id="linear-gradient-128" x1="362.2" y1="239.6" x2="365.98" y2="239.6" xlink:href="#linear-gradient"/><linearGradient id="linear-gradient-129" x1="413.59" y1="251.18" x2="416.72" y2="251.18" xlink:href="#linear-gradient"/><linearGradient id="linear-gradient-130" x1="908.91" y1="224.13" x2="913.35" y2="224.13" xlink:href="#linear-gradient"/><linearGradient id="linear-gradient-131" x1="665.04" y1="293.59" x2="666.83" y2="293.59" xlink:href="#linear-gradient"/><linearGradient id="linear-gradient-132" x1="373.02" y1="355.09" x2="376.61" y2="355.09" xlink:href="#linear-gradient"/><linearGradient id="linear-gradient-133" x1="1028.43" y1="317.42" x2="1033.99" y2="317.42" xlink:href="#linear-gradient"/><linearGradient id="linear-gradient-134" x1="887.58" y1="228.63" x2="890.95" y2="228.63" xlink:href="#linear-gradient"/><linearGradient id="linear-gradient-135" x1="357.91" y1="404.23" x2="358.68" y2="404.23" xlink:href="#linear-gradient"/><linearGradient id="linear-gradient-136" x1="351.63" y1="241.79" x2="357.32" y2="241.79" xlink:href="#linear-gradient"/><linearGradient id="linear-gradient-137" x1="401.57" y1="359.91" x2="404.99" y2="359.91" xlink:href="#linear-gradient"/><linearGradient id="linear-gradient-138" x1="1042.65" y1="317.56" x2="1048.03" y2="317.56" xlink:href="#linear-gradient"/><linearGradient id="linear-gradient-139" x1="1089.97" y1="330.26" x2="1092.63" y2="330.26" xlink:href="#linear-gradient"/><linearGradient id="linear-gradient-140" x1="680.71" y1="291.57" x2="681.74" y2="291.57" xlink:href="#linear-gradient"/><linearGradient id="linear-gradient-141" x1="988.71" y1="305.45" x2="992.41" y2="305.45" xlink:href="#linear-gradient"/><linearGradient id="linear-gradient-142" x1="1070.77" y1="318.3" x2="1076.3" y2="318.3" xlink:href="#linear-gradient"/><linearGradient id="linear-gradient-143" x1="711.46" y1="283.76" x2="712.29" y2="283.76" xlink:href="#linear-gradient"/><linearGradient id="linear-gradient-144" x1="665.1" y1="282.72" x2="666.41" y2="282.72" xlink:href="#linear-gradient"/><linearGradient id="linear-gradient-145" x1="1099.67" y1="319.23" x2="1104.8" y2="319.23" xlink:href="#linear-gradient"/><linearGradient id="linear-gradient-146" x1="746.18" y1="284.08" x2="747.49" y2="284.08" xlink:href="#linear-gradient"/><linearGradient id="linear-gradient-147" x1="323.48" y1="276.96" x2="325.61" y2="276.96" xlink:href="#linear-gradient"/><linearGradient id="linear-gradient-148" x1="1083.68" y1="324.14" x2="1090.05" y2="324.14" xlink:href="#linear-gradient"/><linearGradient id="linear-gradient-149" x1="4.05" y1="310.74" x2="8.11" y2="310.74" xlink:href="#linear-gradient"/><linearGradient id="linear-gradient-150" x1="343.37" y1="250.81" x2="345.39" y2="250.81" xlink:href="#linear-gradient"/><linearGradient id="linear-gradient-151" x1="442.49" y1="242.06" x2="449.54" y2="242.06" xlink:href="#linear-gradient"/><linearGradient id="linear-gradient-152" x1="1084.98" y1="318.65" x2="1090.67" y2="318.65" xlink:href="#linear-gradient"/><linearGradient id="linear-gradient-153" x1="323.17" y1="258.76" x2="324.61" y2="258.76" xlink:href="#linear-gradient"/><linearGradient id="linear-gradient-154" x1="749.38" y1="238.79" x2="753.09" y2="238.79" xlink:href="#linear-gradient"/><linearGradient id="linear-gradient-155" x1="937.5" y1="263.84" x2="943.24" y2="263.84" xlink:href="#linear-gradient"/><linearGradient id="linear-gradient-156" x1="673.07" y1="242.96" x2="677.58" y2="242.96" xlink:href="#linear-gradient"/><linearGradient id="linear-gradient-157" x1="1206.91" y1="329.95" x2="1207.6" y2="329.95" xlink:href="#linear-gradient"/><linearGradient id="linear-gradient-158" x1="1207.6" y1="331.3" x2="1218.47" y2="331.3" xlink:href="#linear-gradient"/><linearGradient id="linear-gradient-159" x1="282.46" y1="249.43" x2="284.61" y2="249.43" xlink:href="#linear-gradient"/><linearGradient id="linear-gradient-160" x1="625.96" y1="240.98" x2="627.61" y2="240.98" xlink:href="#linear-gradient"/><linearGradient id="linear-gradient-161" x1="695.68" y1="239.22" x2="696.61" y2="239.22" xlink:href="#linear-gradient"/><linearGradient id="linear-gradient-162" x1="389.39" y1="349.95" x2="404.75" y2="349.95" xlink:href="#linear-gradient"/><linearGradient id="linear-gradient-163" x1="337.6" y1="404.82" x2="338.29" y2="404.82" xlink:href="#linear-gradient"/><linearGradient id="linear-gradient-164" x1="143.54" y1="367.95" x2="151.63" y2="367.95" xlink:href="#linear-gradient"/><linearGradient id="linear-gradient-165" x1="633.07" y1="324.41" x2="637.18" y2="324.41" xlink:href="#linear-gradient"/><linearGradient id="linear-gradient-166" x1="321.95" y1="238.77" x2="323.15" y2="238.77" xlink:href="#linear-gradient"/><linearGradient id="linear-gradient-167" x1="263.16" y1="258.51" x2="264.88" y2="258.51" xlink:href="#linear-gradient"/><linearGradient id="linear-gradient-168" x1="925.09" y1="260.23" x2="932.88" y2="260.23" xlink:href="#linear-gradient"/><linearGradient id="linear-gradient-169" x1="925.02" y1="224.46" x2="926.55" y2="224.46" xlink:href="#linear-gradient"/><linearGradient id="linear-gradient-170" x1="493.83" y1="293.31" x2="497.49" y2="293.31" xlink:href="#linear-gradient"/><linearGradient id="linear-gradient-171" x1="223.52" y1="336.04" x2="228.14" y2="336.04" xlink:href="#linear-gradient"/><linearGradient id="linear-gradient-172" x1="987.3" y1="322.16" x2="992.07" y2="322.16" xlink:href="#linear-gradient"/><linearGradient id="linear-gradient-173" x1="817.52" y1="473.45" x2="818.66" y2="473.45" xlink:href="#linear-gradient"/><linearGradient id="linear-gradient-174" x1="1004.41" y1="326.34" x2="1008.64" y2="326.34" xlink:href="#linear-gradient"/><linearGradient id="linear-gradient-175" x1="342.37" y1="238.27" x2="343.7" y2="238.27" xlink:href="#linear-gradient"/><linearGradient id="linear-gradient-176" x1="283.23" y1="258.26" x2="284.58" y2="258.26" xlink:href="#linear-gradient"/><linearGradient id="linear-gradient-177" x1="957.26" y1="221.52" x2="958.22" y2="221.52" xlink:href="#linear-gradient"/><linearGradient id="linear-gradient-178" x1="1026.67" y1="323.15" x2="1031.41" y2="323.15" xlink:href="#linear-gradient"/><linearGradient id="linear-gradient-179" x1="751.65" y1="262.38" x2="752.66" y2="262.38" xlink:href="#linear-gradient"/><linearGradient id="linear-gradient-180" x1="915.74" y1="282.28" x2="927.9" y2="282.28" xlink:href="#linear-gradient"/><linearGradient id="linear-gradient-181" x1="258" y1="326.58" x2="283.57" y2="326.58" xlink:href="#linear-gradient"/><linearGradient id="linear-gradient-182" x1="236.31" y1="325.15" x2="253.13" y2="325.15" xlink:href="#linear-gradient"/><linearGradient id="linear-gradient-183" x1="419.66" y1="352" x2="426.98" y2="352" xlink:href="#linear-gradient"/><linearGradient id="linear-gradient-184" x1="900.5" y1="270.5" x2="902.83" y2="270.5" xlink:href="#linear-gradient"/><linearGradient id="linear-gradient-185" x1="246.99" y1="329.75" x2="254.13" y2="329.75" xlink:href="#linear-gradient"/><linearGradient id="linear-gradient-186" x1="242.91" y1="339.41" x2="248.95" y2="339.41" xlink:href="#linear-gradient"/><linearGradient id="linear-gradient-187" x1="190.46" y1="338.48" x2="194.93" y2="338.48" xlink:href="#linear-gradient"/><linearGradient id="linear-gradient-188" x1="264.79" y1="340.45" x2="273.12" y2="340.45" xlink:href="#linear-gradient"/><linearGradient id="linear-gradient-189" x1="865.24" y1="193.22" x2="866.93" y2="193.22" xlink:href="#linear-gradient"/><linearGradient id="linear-gradient-190" x1="852.03" y1="201.42" x2="852.67" y2="201.42" xlink:href="#linear-gradient"/><linearGradient id="linear-gradient-191" x1="1092.44" y1="278.79" x2="1113.38" y2="278.79" xlink:href="#linear-gradient"/><linearGradient id="linear-gradient-192" x1="994.47" y1="267.32" x2="999.4" y2="267.32" xlink:href="#linear-gradient"/></defs><title>bb1</title><path class="cls-1" d="M1206.28,438.09h-.06l.56-.08h.12Z" transform="translate(0 0.07)"/><path class="cls-2" d="M1296,338.86a27.89,27.89,0,0,0-7.87-3c-7-1.19-14-2.22-21.07-2.74-4.49-.34-9.06.54-13.59.51-3,0-6.62,2.25-8.87-1.76-.16-.28-1.75-.12-2.44.25a9.45,9.45,0,0,0-1.91,2l-9.29-4.38c.18-3.16.36-6.32.59-10.33-2.9-2.49-4-6.64-3.79-11.2a57.66,57.66,0,0,0,.4-6.79c-.14-1.89.42-2.84,2.12-3.81,1.11-.63,2.39-2.26,2.29-3.32-.36-3.79,2.15-6.21,4-9s4.48-5.48,6-8.54c2.63-5.22,4.7-10.7,8.66-15.24a5.32,5.32,0,0,0,.67-2.49c.62-3.57.48-7.38,3.83-10a3.63,3.63,0,0,0,1.06-1.79c1.18-3.9,2.28-7.82,3.43-11.73a17.21,17.21,0,0,1,.88-2.53c1.77-3.77,3.69-7.48,5.33-11.3.48-1.13.21-2.55.3-3.83.17-2.26-.29-4.84.68-6.74,2.28-4.48,1.39-8.72,0-13s-3.64-8.72-2.54-13.37c.83-3.5.62-6.82.46-10.31-.14-2.94-1.49-4-4.05-4.78-1.53-.48-2.81-1.68-4.21-2.55s-2.92-2.36-4.54-2.6c-2-.29-2.38-.72-2.73-2.64s-1.57-4.43-3.22-5.47c-1.5-.93-2.3-1.6-2.52-3.22-.33-2.43-.83-4.84-1.26-7.26h-.73l-1.09,1.83c-7.58-7.87-12.13-17.24-15.45-27.53,2.57-.68,1.63-2.39,1.22-4.24a57.89,57.89,0,0,1-.87-7.57c-.12-1.37.33-2.94-.21-4.09-2-4.28-2-9.6-6.79-12.51-.54-5.62-6.78-6-9.54-9.65a13.91,13.91,0,0,1-2.15-3.16c-1.31-3.4-2.42-6.88-3.64-10.31a1.7,1.7,0,0,0-.63-.65c-4.26-3.12-8.44-6.35-12.84-9.28a8.81,8.81,0,0,0-4.87-1.2c-2.7.09-4.63-.6-5.92-3s-2.42-5.12-4.36-7-4.52-3.3-6.71-5.14a11.3,11.3,0,0,1-4.4-9.8c0-1.47.26-3.18-.4-4.37-2.25-4-5.4-7.56-7.19-11.7-2.32-5.33-3.66-11-5.42-16.6H429.91c-6.53,6.47-9.09,15.75-17.19,21.27-4.55,3.1-7.81,7.88-11.88,11.69s-8.59,7.61-13,11.28c-2.51,2.08-6,3.42-7.76,5.93C375.58,56.57,368,58.77,361.94,63c-5.64,3.92-12.82,5.63-17.78,10.72a4.38,4.38,0,0,1-2,.87c-4.54,1.15-7.42,4.1-9.83,7.79-2.85,4.37-6,8.54-9,12.87-1.64,2.42-3,5-4.61,7.45a37.61,37.61,0,0,1-4.22,6.1c-1.83,1.9-4,4.08-6.39,4.82-5.75,1.73-11.86,2.36-17.64,4-5.28,1.51-10.93,3-15.32,5.91-6.81,4.58-14.8,5.68-22.12,8.59-5.07,2-10.8,2.54-16.23,3.69a4.21,4.21,0,0,1-1.54-.05c-5.48-.9-10.93-2.32-16.44-2.6a102.69,102.69,0,0,0-19.76.7c-5,.71-9.79,3-14.67,4.59a61.32,61.32,0,0,0-5.86,2,58.5,58.5,0,0,0-7,3.56c-4.17,2.53-5.67,7-8.1,10.75a19.14,19.14,0,0,1-4,4.43c-2.27,1.85-5,3.2-7.19,5.14-3.5,3.13-7.23,5.49-12.08,6.35-4.38.77-9,1.54-12.89,3.4-5.45,2.59-10.86,2.91-16.63,2.14a9.81,9.81,0,0,0-3.07.33c-3.13.63-6.22,1.62-9.38,1.9-7.8.71-12.31,5.36-16.19,11.24-1.65,2.5-3.82,5.2-6.46,6.48-4.51,2.18-6.54,6.08-8.69,9.76-2.06,3.51-3,7.63-4.41,11.47-1.34,3.53-1.88,7.64-6.68,8.76-.18,0-.29.31-.47.38a57.64,57.64,0,0,1-5.64,2c-2.22.59-4.27.85-5,3.62s-2.24,5.39-5.72,6.1c-1.9.38-3.77.9-5.64,1.4a14.7,14.7,0,0,0-4.06,1.27,58.56,58.56,0,0,0-6.46,5,4.21,4.21,0,0,0-1.4,2.67,33.62,33.62,0,0,0,.06,8.33c.43,2.22,1.8,4.33,3.06,6.31,1.42,2.23,3.17,4.27,4.79,6.38a13.33,13.33,0,0,0,2.09,2.47c5,4,9.85,7.94,12.28,14a8.09,8.09,0,0,0,2.91,3c2,1.41,2.41,2.88,1.49,5.16-1.33,3.33-4,6.5-2,10.48.21.43-.36,1.16-.3,1.73.12,1.29,0,3.31.73,3.67,1.24.62,3.08.36,4.61.15a14.83,14.83,0,0,0,3.28-1.36c-1.26-5.74,2.37-11.54.82-17.62a1.42,1.42,0,0,1,.12-1.16A29,29,0,0,1,57.68,288c.42.79,1.2,1.59,1.2,2.39,0,2.63-.22,5.26-.36,7.89,2.28-4,6.58-7.16,5.6-12.83-.68,1.45-1.18,2.53-1.81,3.86-1.53-2.46.75-12.53,2.64-12.93l2.28,2.53c.9-6.27,2.06-11.66,1.12-17.25A15.18,15.18,0,0,1,68,257.6c.52-4.77,1.36-9.5,1.82-14.27.43-4.37.65-8.67-2.11-12.72-2-2.89-.74-8.15,2.13-10.37a3.94,3.94,0,0,1,3.7,0A19.82,19.82,0,0,1,77,225c1.51,2.53.73,5.33-1.09,7.72a11.79,11.79,0,0,0-2.6,6.09c-.34,8.52-.23,17.06-.29,25.44,1.63-.29,3.57,2.36,3,5.07a25.68,25.68,0,0,0-.39,5.26c.08,5.24,5.63,9,4.42,14.61,0,.07.14.16.16.25.56,2.14,1.51,4.27,1.6,6.44.24,5.48.08,11,.1,16.47,0,.16.21.32.45.67l2.34-1c-.09.27-.19.54-.29.81,1.52.65,3.06,1.9,4.54,1.84,2.4-.11,1.45-2.37,1.76-3.82a12.41,12.41,0,0,1,1.11-2.48l1.07.32c-.09.9-.23,1.79-.25,2.69a32.77,32.77,0,0,0,.1,4.65A34.59,34.59,0,0,0,94,321.68a2.82,2.82,0,0,0,1.65,1.75c2.1.36,4.26.38,6.71.56v-6.84c.09-3.3.2-6.59.39-9.88a1.51,1.51,0,0,1,.9-1.1c2.77-.56,1.77-2.25,1.49-3.91-.51-3-.65-5.93,1.6-8.65a14.85,14.85,0,0,0,3.61-11.74c-.16-1.25.74-2.63,1.15-4l1.44.1c.35,1.23,1.26,2.61,1,3.66a13.94,13.94,0,0,0,2,12,10.57,10.57,0,0,1,1,10c-.37,1-.37,3.07.11,3.29,2.55,1.12,1.86,3.06,1.79,4.87-.15,3.43-.39,6.86-.52,10.29-.35,9.08-.54,18.16-1,27.23-.77,15.36-1.71,30.71-2.54,46.07a37.72,37.72,0,0,0,.28,4.2l11.31-4.94c.55-.28,1.49,0,2.45.13,2,.17,4.14,0,6.14.34,3.69.63,7.33,1.54,11,2.32,2.65.57,5.12.9,4.79-3,0-.33.56-.7,1.3-1.56,1,9.94,7.28,8.86,14.14,7,0,.65.07,1.38.12,2.26l7.55,1.27,1.62-6.14c.66,1.06,1.09,1.44,1.12,1.85.28,3.8,2,6,6.33,6.11a34.23,34.23,0,0,1,6.13,1.07c2.63.56,5.23,1.2,7.84,1.81l.24.85c-4.4,1.85-3.49,5.49-3.66,8.75-.07,1.49,0,3-.07,4.49-.08,4.29-.56,4.87-5,5.09-6.24.32-12.49.69-18.73.64-3.28,0-4.65,1.19-4.94,4.56,1.94.27,3.83.67,5.75.78,6.48.37,12.92-1,19.43-.45,2.57.23,5.29-.61,7.78-.15,3.65.67,7.13,2.15,10.74,3.1a12.46,12.46,0,0,0,3.58-.15l-.12-.74-3.26-1,5.43-2.76L209.81,429a2.31,2.31,0,0,1,.07-.69h12.38l-9.54-4.86c5-1.54,8.94-3.91,14-3.62s5.15-.13,5.46-5a9.94,9.94,0,0,1,.3-1.46c.17-1.13.3-2.26.5-3.77l7.39-1.37v-.85a13,13,0,0,0-2.44-.65c-2.39-.15-4.79-.16-7.19-.25-4.54-.17-4.55-.19-5-4.65a5.77,5.77,0,0,1,1.45-.39c11.43.14,22.87.09,34.29.58,4.24.18,4.25.74,4.74-3.34.39-3.21,1.3-3.71,4.57-2.53.76.28,1.55.49,2.32.73.17-.35.33-.71.49-1.06l-6.2-3c4.87-1.79,4.85-1.79,4.72-6.69,0-.68.33-1.35.38-2,.13-1.77.21-3.55.25-5.32s0-3.55,0-5.83a32.77,32.77,0,0,0,4.49,1.25,6,6,0,0,0,2.25-.7,11.34,11.34,0,0,0-1.16-2.08c-.34-.39-1-.52-1.9-.93,2.48-2.3-.38-6.78,4.21-7.87a11.1,11.1,0,0,1,8.62,1.53l2,7.73-3.85.65c2.43,3.49,8.43,1.74,10.08,6.75a19.36,19.36,0,0,0-2.26.39c-1,.32-1.93.75-2.9,1.13.65,1.14,1,2.63,2,3.34s2.75.79,4.15,1.19,2.82.88,4.23,1.32a6.84,6.84,0,0,0,0,1L295,390.5c.66.8,1.36,2.12,1.75,2,1-.2,1.83-1,3.18-1.91.26.23,1.25.67,1.44,1.33a7.66,7.66,0,0,1-2.39,8.24l4,2.41a25,25,0,0,0-2.59.67c-.92.35-1.81.81-2.71,1.22a14.36,14.36,0,0,0,2.39,2c1.94,1,4,1.81,6.55,3l-8.23,2.36,4.36,2.54-3.35.81c2.34.72,4.87.8,6.17,2.06,2.07,2,4.26,1.61,6.57,1.62h9v.54L297.92,421c-1.34-1.46-4-1.65-6.93-.15a6.17,6.17,0,0,1-2.64.2c-1.8,0-4.12-.8-5.32,0-3.93,2.6-7.75.92-11.67.63a32.74,32.74,0,0,0-6.17.33c-1.07.12-2.07.72-3.14.86-3.46.45-7.16.21-10.36,1.32a29.1,29.1,0,0,1-12.49,1.72c-1.9-.18-3.87.29-6.3.52,2.6,2.8,9,.8,6.68,7l6.33-.71c-3.26,4.44-5.32,5-7.74,2.5-2.06-2.17-3.82-1.72-6.38-.41,2.56,2.76,7.67,1.16,8.85,5.14l5.6.25c-6.17,2.11-12.6.12-18.75,1.22l.06.79,5,1.44a9.08,9.08,0,0,1-1.32.51c-6,.47-12.06-.38-18.2.32-5.88.68-12.27,1-17.89-2.92h7.51c0-.46-.05-.92-.08-1.39l-9.32.58c.46,2.18.84,3.94,1.21,5.72l156.91-1.32c.11-.34.21-.68.32-1-1.83-2.92-4.86-4.52-7.66-5.86l1.75-2c-.78-.29-1.56-.6-2.35-.86s-1.77-.55-2.65-.82a4.6,4.6,0,0,1,.14-.74l10.44-.59c-1.93-2.73-3.36-5.17-.9-7.49,1.54-1.46,2.45-3,1.29-4.68s-3-3.38-5.74-2.58a4.66,4.66,0,0,1-2.41.41c-2.82-1-5.54-1.82-8.28.16-.21.15-.74-.1-1.12-.17a10.1,10.1,0,0,0-3-.54c-3.34.44-4.46-.42-4.34-3.57.12-2.89.29-5.78.24-8.66a14.63,14.63,0,0,0-.91-3.38l-1,.06a16.89,16.89,0,0,0-.86,3.26,64.63,64.63,0,0,0-.24,8.68c.11,1.59,1,3.11,1.73,5-2.09.45-2.75-1.3-2.89-3.2a64.54,64.54,0,0,1,0-7.49c.28-6.11.64-12.21,1-18.32h.72V400c2.66-2.42,3-5.22,2.57-8.27-.18-1.16-.52-2.65,0-3.48,2-3.06,1.41-6.34,1.51-9.59a34.89,34.89,0,0,1,.52-3.54c2.14,2.86-.84,6.42,2.79,8.45a48.5,48.5,0,0,0,.52-6.3c.12-1.27.79-3.56,1.18-3.56,2.41,0,1.84-1.58,1.89-2.69.13-2.8.09-5.6.1-8.39v-10.9h1c.17,1.48.34,3,.59,5.22,2-4.26-.45-8.8,3.35-11.69.47-6,4.5-11.26,3.72-17.49a7.48,7.48,0,0,1,.28-1.77c1.1-7.6,2.17-15.2,3.3-22.8a7.44,7.44,0,0,1,.84-1.82l.94.16c.12,1.71.2,3.43.39,5.14.74,6.75,1.44,13.5,2.29,20.23.84,6.56,1.84,13.1,2.78,19.64,0,.17.23.32.36.47l1.42-.48c.24,3.49.47,6.77.7,10.06h.63c.21-1.34.41-2.69.61-4a3,3,0,0,1,.83,2.21c-.17,4.79-.83,9.61-.45,14.35s1.75,9.63,2.79,14.43c.13.61.85,1.11,1.3,1.67l.93-.2v-8.25h1.13c0,2.3.18,4.62,0,6.91-.34,3.51,2.65,6.81.64,10.41-.1.19.54,1.06.78,1,.54,0,1.38-.35,1.51-.73.6-1.79,1-3.65,1.48-5.48a34.61,34.61,0,0,0,2,8c1.56,4.36,5.12,1.65,7.67,1.7,6.64.11,6.64-.09,6.68-7.15a46.52,46.52,0,0,1,4.87,0c1.8.19,3.57.65,5.53,1,.32-2,.58-3.68.84-5.34a2.26,2.26,0,0,1,.88,1.94c-.26,3,1,4.62,4.3,5a53.38,53.38,0,0,1,6.38,1.46c4.09,1,4.09.94,4.94-3,0-.07.33-.08.51-.11.79,3.63.84,3.57,4.3,6,.6.44.63,1.63.92,2.46l-.7.22-1.8-2.16-.58.66c1.92,5,8.45,3,12.23,6.66h-9.76v.34l7.68,2.1c-.06.25-.11.49-.16.73h-8.92v3.81a11.22,11.22,0,0,1-.14,3.29c-1.2,3.45-.79,4.22,3,5.07q3.2.71,6.35,1.58c1.06.29,2,.77,3.08,1.16l-.24.78h-12c-1,2.42-.62,3.89,2,4.42,1.11.22,2.21.52,3.31.81,2.18.56,4.35,1.15,6.53,1.72,0,.23-.1.46-.16.68l-8.45.5-.12.87,8.79,1.94c-.32,1.44-.63,2.85-.94,4.26l-1,.61,8.72,3.51a20.55,20.55,0,0,0,.91,2.65,11.14,11.14,0,0,0,1.49,1.92c.52-.75,1.34-1.44,1.52-2.25.45-2.11.62-4.27.91-6.42a2.35,2.35,0,0,1,.66,1.51c.64,3.06,0,6.34,2.59,9,1.57,1.66,8,2.73,9,.75a21.59,21.59,0,0,0,2.27-7.23c.37-4.42.07-8.88.16-13.32,0-2.52.33-5,.5-7.54h.69l1.71,7.62,1-.14c.37-2,.73-4,1.1-6l.77.09c.2,1.83.41,3.67.61,5.54,1.16.22,2.19.36,3.18.63,3,.82,4.42-.19,4.56-3.17.07-1.55.38-3.1.59-4.64l.73.08.9,7.65h.85l1.77-6.61a13.32,13.32,0,0,1,1,5.31c.09,4.57.18,9.15.15,13.72,0,2.08,1.13,2.51,3,2.45,4.37-.12,8.75-.22,13.13-.24,1.91,0,2.76-.72,3-2.63.34-3.09,1-6.15,1.53-9.23a45.25,45.25,0,0,1,1.22,6.77c.28,1.51.6,3.61,1.68,4.28,4.21,2.58,9,3.12,14.13,2.31-.83-2.62-.12-4.55,2.28-5.29,2.22-.69,4.07,1.18,5,4a3.33,3.33,0,0,0,2.68,1.48c1.08,0,3-.85,3-1.47a87,87,0,0,0,.15-9.37l-10,3.32a15.46,15.46,0,0,0-3-1.31c-1.8-.41-3.74-.36-5.48-.91-.6-.19-1.17-1.68-1-2.48.53-3.67,1.34-7.31,2-11,.29-1.66.41-3.35.61-5l.34.07,1.62,10.16h1.3l1.63-8.06c.37,2.26.7,4.43,1.1,6.59.36,1.92,1.36,2.82,3.64,2.63,2.75-.23,3.66-1.87,4.07-4,.49-2.53.77-5.09,1.13-7.64H525l1.68,10.2,1.21-.1,1.32-8.21h.88c.45,6.86.93,13.73,1.34,20.6.19,3.12.25,6.26.38,9.39h1.08l2.94-6.57c.82,2.1,1.18,3.83,2.13,5.18a4.65,4.65,0,0,0,3.15,1.63c.85.07,2.57-1,2.55-1.49-.14-3.07,1.93-2.69,3.93-2.68a21.22,21.22,0,0,0,2.63-.32c-.71-4.52-.3-4.86,5.92-5.37,1.07,1.59,2,3.21,3.19,4.69,1,1.29,3.26,1,3.38-.36.24-2.88.07-5.79.07-8.92l-6.1,1.54-1.41-1.15c-1.67,3.38-1.67,3.38-4.07.41l-2.43,1.81-1.23-2.3-2.86,1.17a11.2,11.2,0,0,1-1.28-3,14.67,14.67,0,0,1,.4-4c.7-3.68,1.48-7.34,2.22-11l.51.07c.46,2.72.93,5.43,1.39,8.15h1c.51-2.42,1-4.83,1.53-7.29.53,2.8,1.06,5.53,1.57,8.19,6.48,1,7.27.48,8.08-5.38.24-1.78.54-3.55,1-6.17.69,4,1.23,7.18,1.76,10.33h.84c.44-2.62.87-5.24,1.31-7.86,1.53,8.21,3.63,16.27,2.4,24.6a6,6,0,0,0,.32,3.52c.57,1.06,1.89,2.44,2.86,2.43a4.68,4.68,0,0,0,3.38-2.19,44.28,44.28,0,0,0,2.28-6.71,53.8,53.8,0,0,1,1.93,6c.44,2.16,1.73,2.67,3.75,2.62,3.22-.06,6.45,0,9.67,0a2.69,2.69,0,0,0,3.09-2.21v0c.59-2.28,1.47-4.49,2.15-6.5.71,2.2,1.38,4.6,2.27,6.93,1.07,2.82,3.72,1.67,5.68,1.6a3.48,3.48,0,0,0,2.51-2.31c0-4.86-.41-9.72-.48-14.58-.06-3.79.19-7.59.3-11.38l.87-.06c.38,1.37.76,2.73,1.15,4.1l1-.1V409.81a8.34,8.34,0,0,1,.48-2.56c.48-1.43,1.28-2.78,1.62-4.22.89-3.8,1.56-7.64,2.44-11.44.15-.66.88-1.19,1.78-2.35,3.4,12.77,5.85,25,5.25,37.7l.9-.06c.41-1,.83-1.93,1.25-2.9l.46.16q.29,2.84.55,5.65h1.22a34.76,34.76,0,0,0,.41-4.42c-.18-6.28-.48-12.55-.68-18.82a22.51,22.51,0,0,1,.39-3.25c.19-1.55.37-3.1.55-4.65.19-1.73.26-3.48.58-5.19.42-2.23,1-4.43,1.55-6.64.16-.65.34-1.31.51-2l.75.08c1.14,6.72,2.28,13.43,3.53,20.77l1.09-1.72c.56,1.07,1.2,2.31,1.91,3.65l2.82-16.86a16.75,16.75,0,0,1,1.7,5.73c.47,2.89.8,5.8,1.43,8.65a10,10,0,0,0,1.76,2.79l.81-.5c.26-1.11.53-2.22.79-3.34a3,3,0,0,1,1.2,2.06c.2,2.72,2.28,3.54,4.5,3.7,2.58.18,1.41-2.14,1.94-3.34a6.75,6.75,0,0,1,.46-.72l4.31,2.17c1.38-8.31,2.7-16.23,4-24.16A91.09,91.09,0,0,1,666.19,396a1.37,1.37,0,0,1-.09.87c-1.68,3.57,1,5.62,2.63,8,1-5.14,2.07-10.19,3.19-15.74.45.77.73,1,.71,1.26-.47,5.19,3.82,9.78,2,15.14-.09.25.1.58.14.87.24,2.14.64,4.27.7,6.41.23,7.73.31,15.46.6,23.18,0,.52,1.22,1.36,1.92,1.42,2.36.18,4.74.08,7.12.07,5.54,0,5.9-.32,6.47-5.88a20.25,20.25,0,0,1,4.19.08c.72.15,1.81,1.23,1.74,1.77-.45,3.43,1.45,3.92,4.31,3.57a24.18,24.18,0,0,0,4-.33c1.08-.32,2.65-1.09,2.83-1.9a76.1,76.1,0,0,0,1.51-10.3c.74-8.61-1.36-17.27.56-25.86.11-.47-.1-1,0-1.49.3-2.39.61-4.79,1-7.17.29-1.76.69-3.51,1-5.26.17-.92.32-1.83.48-2.75a36.59,36.59,0,0,1,2.57,8.5c.55,2.87.89,5.77,1.32,8.65l.58.11Q719,393.61,720.3,388h.48l3.14,17c.17-.38.43-1,.67-1.46l4.67,2.21,1.13-4.19.82.14a20.11,20.11,0,0,0,1,4,3.32,3.32,0,0,0,2.14,1.63c.52.08,1.36-.89,1.83-1.54a36.17,36.17,0,0,0,1.93-3.6l6.49,8.26a71.47,71.47,0,0,1,3.53-29.18c.6,2,.71,4.13,1.26,6.1a54.55,54.55,0,0,0,2.35,5.93l.67,0c.29-2.11.57-4.22.86-6.33,6.23,19,3.51,38.69,4.75,58l.85.07c.37-.64.75-1.27,1-1.68.4,1,.86,2.24,1.59,4.16.57-1.44.8-2,1-2.48.4,1.13.81,2.31,1.43,4.1l.73-1.38,7.2,5.79c1.24-6,2.36-11.5,3.47-16.91.91,3.31,2.19,6.5,2.6,9.79.56,4.52.5,9.11.63,13.67,0,1.94.74,3,3,2.89,1.86-.11,3.39-.07,3.46-2.67,0-2.12,1.07-4.21,1.71-6.51.84,2.24,1.6,4.23,2.4,6.37l1-1.07c1.65,1.31,3,2.74,4.63,3.51,1.09.51,2.67,0,4,.09,2.51.23,3.31-.87,3.23-3.15-.19-5.69-.3-11.38-.36-17.07Q801.26,412,801,381.6a21.14,21.14,0,0,0-.26-3c-.66-4.39-1.71-8.76-2-13.17-.5-9.16-.64-18.34-.78-27.51a28.3,28.3,0,0,1,.88-6.3c.24-1.13,1.06-2.15,1.29-3.29a17.75,17.75,0,0,0,0-3.5h.64c.22,1.21.45,2.42.67,3.62l1-.08c-.08-1.57-.18-3.14-.22-4.71,0-1.25-.39-2.66.07-3.74.81-1.9,1.72-4.16,3.33-5.29,3.64-2.53,3.1-6.79,5.2-9.9.58-.85.16-2.3.22-3.48.07-1.35.16-2.7.26-4.27l2.09,1.32c1.41-4,.39-7.48-.55-11.08-.47-1.81-.79-4.13,0-5.69,4.4-9,6.6-18.46,8.15-28.14.52-3.24.64-6.54.86-9.82.11-1.67,0-3.35,0-5h1.61a38.31,38.31,0,0,0,0,6.25c1.49,8.91,3,17.82,4.86,26.68a26.52,26.52,0,0,0,3.27,8.26c2.17,3.57,2.89,6.63.26,10.41-1,1.44-.8,5.6,0,5.91,4,1.61,2.52,4.73,3.11,7.35a85.25,85.25,0,0,0,2.93,8.78.68.68,0,0,0,.44.39c4.09.45,3.38,4.33,4.33,6.48,1.6,3.6,1.59,7.85,2.21,11.56a12.64,12.64,0,0,1,1.46-1,1.78,1.78,0,0,1,.78.79,38.3,38.3,0,0,1,1.17,6.28c.26,6.28.35,12.57.41,18.85.06,5.49.24,11-.09,16.46-.31,5.2-1.68,10.36-1.75,15.54-.16,13-.26,26,.39,39,.85,16.83-2,33.85,2.72,50.47.31,1.11,1.19,2.88,1.88,2.91,1.72.08,4,1.27,5.19-1.22s2.73-2.72,5.36-1.72c1.44.58,4.49.54,5-.24,1.64-2.76,3.81-1.35,5.77-1.26.34,0,1,1.21.88,1.78-.38,2.81-1.2,5.59-1.38,8.4-.26,4.06.25,4.33,4.63,4a13.32,13.32,0,0,1,2.65.32,13.46,13.46,0,0,1-4.72.61c-1.63,0-3,.47-2.87,2.35.08,2.06,1.68,1.94,3.17,1.9,3-.1,6.24-1.43,8.68,1.59.3.37,1.17.38,1.78.42,5.17.34,8.46,3,9.91,7.64.72,2.33,1.7,2.18,3.58,1,3-2,6.27-3.62,9.45-5.36a3.71,3.71,0,0,1,1.8-.4c4.59.21,7.5-1.41,9-5h6.67c-.18-1.16-.32-2-.48-3,1.56-.3,3.15-.26,4.33-.9a11.89,11.89,0,0,0,3.2-3.13,10.64,10.64,0,0,0,1.16-2.48,12.68,12.68,0,0,1,2.23,1.52,3.39,3.39,0,0,0,4.76.55l.11-.09a5.44,5.44,0,0,0,1.69-3.22c.18-1.18-.34-2.46-.58-3.8-5.11,2.8-5.11,2.75-9.4,2.51-2.07-.12-4.17,0-7.24,0,1.23-1.13,1.91-2.32,2.76-2.45,4-.62,8.12-1,12.27-1.4.25-2.48.48-4.63.78-7.59-1.89,1-3,2.06-4,2s-1.65-1.33-2.54-2.13a35.63,35.63,0,0,0-4.93.07c-.86.12-2.23.9-2.3,1.49-.3,2.61-.62,5.07-3.27,6.3l-3.55-4.64c.28-1.12.76-3.14,1.26-5.16.36-1.44,1.17-1.85,2.47-.91.55.4,1,.87,1.61,1.34,1.84-3.6,1.84-3.6-3.52-6.63,1.85-5,3.76-10.08,5.75-15.4,2.48,1.53,3.32.82,4-1.16a88.94,88.94,0,0,1,3.85-8.19,43,43,0,0,1,3.85,5.25,22.86,22.86,0,0,1,2.44,6.63c.2,1.27-.82,2.78-1.45,4.11-.76,1.57-1.7,3-2.56,4.57l.84.6L950.08,458a4.06,4.06,0,0,0-3.08-4.85l-.34-.06c-2.57-.53-2.28-2.27-2.27-3.89,0-.45.83-1.18,1.37-1.27s1.66.52,1.66.81c-.06,4.49,5,5.62,6.47,9.34,3.84-4.73,9.24-8.21,9.84-14.75a5.11,5.11,0,0,1,1.37-2.49c2.4-2.82,5-5.49,4.15-9.64a31.4,31.4,0,0,1-.5-5.65c0-.78.32-2.19.68-2.24a19.83,19.83,0,0,1,5.22-.1c.29,0,.57,1.47.6,2.26.08,2.09,0,4.19,0,6.28h1.19a14.52,14.52,0,0,0,.32-2.68,86,86,0,0,0-.88-8.64c-.34-1.89.23-2.65,2.14-2.64h5.44a17,17,0,0,0-.36-2.42c-.57-1.82.18-2.84,2.06-2.7,3.44.26,3.6-1.6,3.46-4.12-.18-3.11,0-6.25,0-9.45,4.5,1.87,4.46,1.91,1.62,5.29a4.42,4.42,0,0,0-.72,2.79c.17,4.51.44,9,.74,13.51a10.31,10.31,0,0,0,1,2.33,8.56,8.56,0,0,0,.76-2.22,78.57,78.57,0,0,0-.84-10.42c-.49-2.53.27-3.35,2.69-3.36.73,0,1.46,0,2.19-.06,2.31-.11,3.09.75,2.77,3.08a52.23,52.23,0,0,0-.08,7.3l1,.38c.59-1,1.69-1.9,1.69-2.86a73.4,73.4,0,0,0-.59-10.16c-.56-4.17-.52-4.37,3.94-4.45h1.57c2.12-.1,2.9.71,2.75,2.87-.26,3.58-.18,7.18-.12,10.77a5.07,5.07,0,0,0,.82,2.46c1.92,3.11,5.86,4.83,6.53,8.88.07.43,1.72.89,2.63.89,5.73,0,11.47-.16,17.2-.29,1.73,0,3.46-.14,5.19-.22l-.52-.7c1.09-1.43,2.28-2.81,3.25-4.31,1.47-2.28,3.65-4.55,4-7,.48-3.58-.25-7.35-.8-11-.31-2.08.26-3.07,2.38-3.23,1.25-.1,2.5-.15,3.75-.2,2-.07,2.78.7,2.67,2.71-.2,3.58-.17,7.18-.15,10.78a4.12,4.12,0,0,0,.64,2.53c1.8,2.08,3.84,4,5.73,6a2.94,2.94,0,0,1,.92,1.78c-.07,2.23,1.35,2.37,3.07,2.32,5.42-.14,10.85-.22,16.27-.39,3.47-.11,6.95-.32,10.72-.51-.86-2.61-.28-3.69,2.43-3.82,3.5-.17,7.66-4.93,7.58-8.49a101.72,101.72,0,0,0-.82-10.44c-.38-3,.09-3.79,3.25-4a26.33,26.33,0,0,1,3.44,0c2.19.13,3,1.19,2.84,3.37-.5,5.66-1.79,11.55,3.44,16.08a18.28,18.28,0,0,0,3.22,1.8c.35-1,1.28-2.19,1-2.84a47.87,47.87,0,0,0-4.61-7.51,11,11,0,0,1-.33-12c.69-1,1.36-2.66,1-3.59-2.28-5.36,3.7-7.89,3.73-12.83a51,51,0,0,0,3.75,5.38c1.38,1.49,2.39,2.79,2,5-.16.92,1.19,2,1.72,3.14.79,1.62,2.09,3.32,2,5-.08,2.55.38,5.41-2,7.56a2.81,2.81,0,0,0-.33,2.8c2.1,2.23.91,4.76,1.11,7.14.17,2,0,4,.21,6a2.13,2.13,0,0,0,1.07,1.57,2.52,2.52,0,0,0,2-.3c1.15-2.34,2.67-4.71,3-7.19.34-3-.28-6.16-.73-9.22-.32-2.16.41-3.25,2.66-3.45,1-.09,2.06-.31,3.1-.37,2.72-.17,4.12,1,4,3.71-.12,3.09-.32,6.18-.24,9.27,0,1,.61,2.66,1.3,2.85a3.74,3.74,0,0,0,3.27-1c2.29-3.28,5.66-6.33,3.83-11-.4-1-.55-2.12-.89-3.16-1.57-4.81.09-7.47,5.23-7.84a19.06,19.06,0,0,1,5.84.68,3.68,3.68,0,0,1,2.23,1.85c1.45,3.35,2.79,6.65-.7,9.91a4.88,4.88,0,0,0-.75,4.56c1.77,3.72,7.05,5.26,7.09,10.2,0,.19.47.36.69.57L1186.56,440c1.4-.28,3.44-.65,5.46-1.09s4.14-1,6.15-1.48c-.5-4.14-.1-4.61,3.72-5.35s7.86-1.83,11.85-2.36c3.36-.45,7.33-2.09,9.53,3.4a21.57,21.57,0,0,0,2-3.49c.63-2,.66-4.25,1.6-6.08,2.89-5.55,1.72-11.28,1.44-17-.17-3.48-2.52-5-5.46-5.64a33.16,33.16,0,0,0-7.13-.43c-4.68,0-9.39.43-14,0-3.87-.39-7.54-1-11.21.75a2.67,2.67,0,0,1-2.3-.87c-2.19-3.07-4.16-6.18-7-8.93-2.63-2.61-1.56-4.29,2.08-5.54a16.83,16.83,0,0,0,4.18-2c1.88-1.3,3.63-2.21,6-1.19.58.25,1.66-.42,2.44-.8a55,55,0,0,1,6-3c7.39-2.81,15.22-4.2,22.67-7,10.28-3.93,21.12-6.53,31.78-9.5,7.14-2,14.55-3,20.92-7.24,6-4,12.45-7.44,18.68-11.17C1297.53,342.67,1297.77,339.79,1296,338.86ZM189.92,430.13l-.09-.86,4.45-.36v1.22Zm74.36-3.51,8.21.79a9.94,9.94,0,0,1-.13,1.08l-8.2-1.21Zm-21.68,3.31-.32-1.19,5.67-1.5c.13.46.25.91.37,1.37Zm-6,13.63c5.31-.11,10.57-2.27,15.92-1.09v1.09Zm9.8-5c3.23-2.37,4.74-2.19,7.14.91Zm25.09,4c-.29.08-.56.27-.79.22a48.88,48.88,0,0,0-5.14-1.17c-1.14-.14-2.83-.17-3.42.47-1.62,1.76-3,1-4.73.41,2.82-3.61,6.43-3,10.36-2.68,5,.48,10.12.12,15.21.6H270c.78,1.24,1.08,1.67,1.47,2.21ZM419.13,417c0-.36-.07-.72-.1-1.08,2.54-2,4.91-.19,7.32,1.08ZM900.9,500.69c-1.83-2-.71-4.17-.47-6.29l1.23-.08.54,6.28ZM925,484a10.29,10.29,0,0,1,2.26,2.42c-.79.36-1.56.74-2.36,1.08-1.11.49-2.49.72-3.31,1.5-1.7,1.59-2.69,1.5-3.7-.58a40.83,40.83,0,0,0-2.8-4.24l5.31-2.82-.09.87A32.87,32.87,0,0,1,925,484Z" transform="translate(0 0.07)"/><path class="cls-3" d="M1364.82,767.4c-.1.19-.19.56-.31.57H1362L2.81,768A14.6,14.6,0,0,1,0,767.43q157.5,0,315-.08H1361.38Z" transform="translate(0 0.07)"/><path class="cls-4" d="M9.06,421.2q-.39,11.92-.93,23.8a59.07,59.07,0,0,1-.82,8.3c-.13.71-1.6,1.61-2.47,1.63-.68,0-1.55-1.12-2-1.92a8.2,8.2,0,0,1-.59-2.47c-.43.8-.83,1.61-1.28,2.4-.29.5-.63,1-.94,1.45V431.66c4.85-1.41,6.31-4.72,6.37-9.33,0-3.34,1.08-6.66,1.68-10l1,.15C9.08,415.39,9.16,418.3,9.06,421.2Z" transform="translate(0 0.07)"/><path class="cls-5" d="M1328.13,461.9c-3.88,0-6.85.15-9.8,0a242.46,242.46,0,0,0-47.95,1.93c-12.14,1.72-24.36,3.17-36.35,5.63a159.79,159.79,0,0,0-40.18,13.88c-15.91,8.07-30.44,17.9-39.45,33.5A81.71,81.71,0,0,0,1144.05,548c-.12,1-.31,1.9-.47,2.84h-1c-.6-8.86-.73-17.8-1.6-26.59-.88-9-2.06-17.67.59-26.59l1.36,23.18.95.1,4.93-11.48c-1-1.42-2-3-3.35-4.94,2.27.64,5.23,1.59,5.28,1.47,1.28-3.25,7.38-5.36,2.26-10.38,6.9,1.53,9.42-3.62,13.16-6.6,7.28-5.8,14.6-11.51,23.2-16a43.71,43.71,0,0,0-5.61,0c-12.7,1.61-25.38,3.31-38.07,5a4.65,4.65,0,0,1-1.55.14c-1.27-.31-2.5-.75-3.75-1.14.95-1.16,1.68-3,2.86-3.37,4.08-1.09,8.31-1.67,12.49-2.37a55.72,55.72,0,0,1,6.56-.82c2.93-.13,5.9.19,8.81-.07,1.54-.14,3-1.45,4.51-1.6,13.91-1.32,27.85-2.28,41.73-3.81,7.05-.77,14-2.63,21-3.7,3.73-.57,7.57-.42,11.35-.75,2.15-.19,4.26-.84,6.4-1,8.38-.59,16.76-1,25.13-1.6,6-.42,11.93-1.17,17.9-1.44,2.86-.13,5.74.6,8.62.8,3.94.27,7.9.41,11.84.62A12.63,12.63,0,0,1,1328.13,461.9Z" transform="translate(0 0.07)"/><path class="cls-6" d="M1128.85,514.37c-.33-6.44-.84-12.88-1.27-19.32h.52c-.63-5.35-1.24-10.69-1.89-16-.19-1.56-.49-2.73-2.78-2.79a37,37,0,0,1-8.05-1.38c-1.47-.38-2.4-.66-3.36.9a4.7,4.7,0,0,1-3,1.66c-10.79,1.68-21.61,3.22-32.41,4.86-4.31.65-8.6,1.41-12.89,2.19a3,3,0,0,0-2.68,4c.14.54,2.19,1,3.27.88a47,47,0,0,1,20,2c10.13,3.1,18,9.35,25.18,16.66,2.68,2.75,5.15,5.47,4.71,9.66-.18,1.75.71,2.74,2.89,2.42a44.74,44.74,0,0,1,6.24-.29C1128.27,519.68,1129.08,519,1128.85,514.37Zm-16.73-18.29c-6.69-3.59-11.29-10.88-20.31-10.34v-.86a13.16,13.16,0,0,1,2.77-1c4.35-.52,8.7-1,13.06-1.37,4.55-.44,4.74-.28,4.8,4.18a29.72,29.72,0,0,1-.39,3.65l-3.61-.87c-.09.24-.17.49-.26.74l4.59,5.21Z" transform="translate(0 0.07)"/><path class="cls-7" d="M1309.11,439.14l-174,28.21c0-2.09-.29-3.45.1-4.6a3.63,3.63,0,0,1,2.23-2.14c13.18-2.37,26.38-4.6,39.58-6.85,2.56-.44,5.11-.89,7.67-1.27.57-.09,1.51-.1,1.73.21,1.31,1.83,2.81.89,4.4.59,3.38-.64,6.79-1.1,10.2-1.58,8.45-1.19,16.91-2.33,25.36-3.53,6.47-.91,12.9-2.07,19.4-2.76,5.1-.55,10.32-.24,15.41-.88,12.59-1.56,25.13-3.43,37.69-5.21,3.32-.47,6.62-1.06,9.92-1.6Z" transform="translate(0 0.07)"/><path class="cls-8" d="M1290.07,409.2a37.92,37.92,0,0,1-6.11.82,4.67,4.67,0,0,1-3-1.61c-1.49-1.76-2.75-2.51-4.9-.81-4.66,3.67-10.06,4.75-16.08,4.37-5.7-.35-11.45-.06-17.17,0-2.24,0-3.23-.81-3.17-3,.09-3.41-1.08-7.31,3.11-9.26a26.79,26.79,0,0,1,7.64-2.18c5.32-.73,10.69-1.12,16-1.63,4.41-.41,8.82-.93,13.24-1.14,3.74-.19,8.9,4.18,9.46,7.75C1289.55,404.89,1289.82,407.29,1290.07,409.2Z" transform="translate(0 0.07)"/><path class="cls-9" d="M1108.84,471.54,1011.91,488c-.92-3.08.11-4.33,2.88-4.85,11.23-2.11,22.43-4.42,33.68-6.46,1.25-.22,2.92.58,4.08,1.34,2.52,1.66,3.72,1.25,5.07-1.37a5.56,5.56,0,0,1,3.52-2.3c7.54-1.52,15.12-2.83,22.7-4.19,6.54-1.17,13.1-2.34,19.66-3.46,1.36-.23,2.78-.21,4.33-.32C1106.59,470,1106.59,470,1108.84,471.54Z" transform="translate(0 0.07)"/><path class="cls-10" d="M1108.63,458.47c-.07.24-.13.49-.2.74-5.67,1.15-11.35,2.26-17,3.47q-30.81,6.6-61.62,13.25c-5,1.07-9.93,2.33-15,3.13-3.52.56-7.15.47-10.72.68a1,1,0,0,0-.36.14l.3.78c-1.41.2-2.81.45-4.22.57-2.58.22-4-1.08-4.08-3.44-.12-5.83,0-11.66,0-17.49l.84-.08c.44,3.84.92,7.68,1.3,11.53.11,1.08-.34,2.27,0,3.25a3.84,3.84,0,0,0,2.1,2c.37.15,1.41-.77,1.86-1.39a10.19,10.19,0,0,0,.86-2.63l2.06,2.82c.18-1.78.33-3.28.49-4.77h.56c.13.82.31,1.63.38,2.46.31,3.83,2,5.2,6,4.35A64.62,64.62,0,0,0,1022,475c.86-.33,1.47-2.14,1.53-3.3.2-3.62.07-7.25.07-10.88l1.17,0c.36,3.35.93,6.7,1,10.06.07,2.57.55,3.34,3.29,2.72q10.5-2.34,20.91-5c.83-.21,1.61-1.39,2-2.29a10,10,0,0,0,.24-3.12c2.63,4.67,2.65,4.73,8.42,3.27,2.66-.67,6.14-.51,6.23-5.1,1,4.16,3.28,2.92,5.63,2.09,1.43-.51,3-.55,4.52-1a34.89,34.89,0,0,1,4.37-1.17c4.17-.78,8.33-1.57,12.5-2.34,3.86-.71,7.7-1.56,11.59-2C1106.37,456.75,1107.56,457.9,1108.63,458.47Z" transform="translate(0 0.07)"/><path class="cls-11" d="M1124.43,555.36c-2.07-.32-4.32-1.14-5.64,1.54a2.43,2.43,0,0,1-2.22.35c-2-1.55-4.84-2.44-4.47-5.82a74.87,74.87,0,0,0,.06-8.07h-.58v-8.67c0-2.13.8-2.93,3.23-2.77,3.6.23,7.25,0,10.88-.12,2.3-.07,3.13,1.09,3.23,3.11.26,5.26.59,10.51.87,15.77C1130,555.57,1129.37,556.13,1124.43,555.36Z" transform="translate(0 0.07)"/><path class="cls-12" d="M1053.57,490.66c-26.43,7.18-35.78,26.3-38,50.44-2.11-18.2,1.6-34.5,17.81-47.45a47,47,0,0,0-4.89,0c-3.51.45-7,1.14-10.52,1.46-1.23.12-2.54-.58-3.82-.91,1-.8,2-2.06,3.14-2.33,4.55-1,9.17-1.81,13.78-2.63,4.91-.87,9.84-1.68,14.77-2.51.61-.1,1.41-.45,1.8-.2C1049.61,487.76,1051.42,489.13,1053.57,490.66Z" transform="translate(0 0.07)"/><path class="cls-13" d="M1007.56,520.89c-.25-3.69-.4-7.38-.57-10.56v-8.9c.07-6.89.08-6.91-6.65-8.21a3.52,3.52,0,0,0-2,.39c-1.59.75-3,1.93-4.72,2.34-3.93,1-8,1.47-11.91,2.46-1,.26-1.77,1.6-2.64,2.44a14.08,14.08,0,0,0,2.86,1.57c1.69.47,3.51.5,5.19,1,7.38,2,11.94,7.69,12.2,15a19.25,19.25,0,0,0,.16,4.17,3.29,3.29,0,0,0,2.06,1.73c.82.27,1.85-.17,2.77-.1C1006.88,524.32,1007.71,523.13,1007.56,520.89Zm-13.72-21.32a2.6,2.6,0,0,1,0-.62,14.52,14.52,0,0,1,4.13.13c.47.15.43,1.82.75,3.46Z" transform="translate(0 0.07)"/><path class="cls-14" d="M1005.31,483.76c-.75.79-1.37,2-2.3,2.29a9.65,9.65,0,0,1-4.61.43c-1.1-.2-2-1.31-3.79-2.53-5.82,1.47-12.57,3.07-19.25,4.9-5.6,1.54-11.09,3.47-16.7,5-2.57.69-5.34.67-8,1.09s-5.11.94-7.66,1.42l.18,1.13,5.5.44c-1.9,2.35-2.47,2.42-7,1.19l-.89-3.79c-1.92,1.52-3.32,2.65-4.73,3.76-.85.67-2,2-2.49,1.85-2.85-1.17-4.06,1.11-5.94,2.09a7.06,7.06,0,0,1-4.42.34c2.34-.91,4.65-1.47,5.25-4.27.07-.32,1.61-.52,2.46-.5,2.45.06,3.61-.9,3.67-3.32,0-.8.84-2.27,1.22-2.25,2.92.19,4.56-1.5,6.25-3.33.39-.43,1.16-.54,2.26-1l-1.74,2.4c1.74.31,3,.52,4.2.76.18,0,.43.33.48.29,2.77-1.93,4.36.52,6.37,1.5a2.46,2.46,0,0,0,1.75,0c5.57-2.17,11-4.74,16.71-6.4,2.07-.61,3.49-1.74,5.23-2.47s4.34-.26,6.54-.34a5,5,0,0,0,1.83-.27c5.51-2.37,11.4-1.5,17.14-1.77C1003.64,482.29,1004.49,483.26,1005.31,483.76Z" transform="translate(0 0.07)"/><path class="cls-15" d="M1329.87,407.23c-.85.73-1.61,2-2.57,2.11-4.38.7-8.82,1.11-13.24,1.62-8-.43-7.86-.44-8-8.06-.06-3.22,1.27-5.08,4.27-6.13,1-.35,1.86-.93,2.84-1.25a12.82,12.82,0,0,1,2.26-.33,6.85,6.85,0,0,1-.46,2.37c-1.67,2.63-.4,5.43,2.93,5.62,2.13.11,3.9,0,5.35,2,.53.72,2.54.36,3.81.71A17.71,17.71,0,0,1,1329.87,407.23Z" transform="translate(0 0.07)"/><path class="cls-16" d="M833.71,353.11c-.19,1-.36,1.76-.68,3.34-2.67-1.56-5.19-2.57-7-4.24-2.3-2.07-4.19-1.78-6.36-.2-1.08.78-8-.18-8-1.3s1.2-2.1,1.89-3.16l.44.09c.24-1.23.47-2.47.82-4.28l4,3.21c-.31-1.69-.52-2.81-.72-3.92,2.42-1.13,2.42-1.13,4.36,3.15l1.75-5c1.24,1.19,2.1,2,3.12,3,3.4-.6,3.4-.6,2.74,4.34l2.68-.51c1,2.27,1,2.27-3.37,4.27.86.3,1.46.56,2.08.73S832.77,352.91,833.71,353.11Z" transform="translate(0 0.07)"/><path class="cls-17" d="M1005,549.87c-4.72.11-6.77-.7-6.94-3.68-.23-4.27-.06-8.57-.06-12.45a28.17,28.17,0,0,0,4-1c3.56-1.46,5.37-.49,5.57,3.11.19,3.39.47,6.77.56,10.16C1008.14,548,1007.86,549.8,1005,549.87Z" transform="translate(0 0.07)"/><path class="cls-18" d="M666.67,539.11c-1.1,1.16-2,2.6-3.27,3.27-.93.47-2.48,0-3.69-.24-1.61-.37-3.14-1.26-4.75-1.41a49.69,49.69,0,0,0-7.11.09c-3.19.15-6.51-1.52-9.59.92-.76.6-2.54.5-3.65.13-2.34-.77-4.2-1-5.73,1.41-.25.41-3,0-3-.17a9.44,9.44,0,0,1,.24-4.13c.25-.8,1.33-1.36,1.44-1.46,2.47.12,4.32.32,6.18.29,3.52,0,7-.29,10.58-.35,5.72-.1,11.44-.27,17.15-.08C663.27,537.44,665,538.54,666.67,539.11Z" transform="translate(0 0.07)"/><path class="cls-19" d="M265.9,529.5l-.78.78H230.59c.89-1.45,1.27-3,2.11-3.27a27.83,27.83,0,0,1,6.58-1.15c.76-.07,1.59.87,2.38.86,3.63,0,7.26-.32,10.89-.39a93,93,0,0,1,11,.18C264.37,526.6,265.1,528.46,265.9,529.5Z" transform="translate(0 0.07)"/><path class="cls-20" d="M945.68,526.88a61.3,61.3,0,0,1-.51-7.86c.22-3.67-1.44-5.85-4.88-7.06a14.38,14.38,0,0,1-1.86-1.09c1.49-.94,2.68-1.6,3.74-2.41.83-.63,1.46-1.5,2.26-2.17s1.55-1.49,2.25-1.42c1.07.1,2.6.68,3,1.48a11.94,11.94,0,0,1,.69,4.65c.12,4.08,0,8.16.15,12.24S950.48,527.66,945.68,526.88Z" transform="translate(0 0.07)"/><path class="cls-21" d="M1206.22,438.12l-.55.29-.6.33a5.07,5.07,0,0,1-1.25.49q-32.83,6.86-65.69,13.63c-1.09.22-2.2.32-3.65.52,6.73-7,15.81-5.86,24-7.37l-7.81,1.86.09.44c6.1-1.16,12.19-2.29,18.28-3.48,11.73-2.29,23.46-4.63,35.21-6.9A6.55,6.55,0,0,1,1206.22,438.12Z" transform="translate(0 0.07)"/><path class="cls-22" d="M1206.37,438.14h0Z" transform="translate(0 0.07)"/><path class="cls-23" d="M975.57,502.4c-3.29,2.31-7.41,4.28-10.13,7.38s-4.5,7.2-5.92,11.11-2,8.35-2.89,12.54h-1c.71-4.87.89-9.88,2.26-14.58s3.9-9.07,6.16-14.12l-7.76,1.49c.38-2.11.45-1.88,9.24-4.39A13.6,13.6,0,0,1,975.57,502.4Z" transform="translate(0 0.07)"/><path class="cls-24" d="M291.08,525.62c-1,3.64-3,5.17-7,4.87-5.32-.39-10.7-.09-16-.09-.64-5.66,0-6.14,5.17-4.57a4.17,4.17,0,0,0,1.74-.13c.5-.08,1-.44,1.47-.39a43.36,43.36,0,0,0,13.69-.26C290.37,525,290.71,525.36,291.08,525.62Z" transform="translate(0 0.07)"/><path class="cls-25" d="M227.75,528.76c0,.57-1.63,1.57-2.53,1.59-5.72.13-11.45,0-17.17,0H195.67l-.41-.83c.43-.47.85-1.34,1.29-1.34,4.67,0,8.86-2.58,14-1.2,3.62,1,8.21,2.33,12.22-.26.54-.35,1.42-.2,2.14-.31a2.21,2.21,0,0,1,2.84,2.35Z" transform="translate(0 0.07)"/><path class="cls-26" d="M11.81,367.59q-.64,14.16-1.31,28.32L9.25,396c-1.94-2.51-3.52-5.34-2.91-8.56,1.26-6.68,2.92-13.29,4.42-19.93Z" transform="translate(0 0.07)"/><path class="cls-27" d="M661.77,446l3,1.54a29.24,29.24,0,0,0-2.48,3.44,21,21,0,0,0-.9,3.23,12.87,12.87,0,0,1-.82,1.72c-.51-.52-1.4-1-1.47-1.56-.39-3-.06-6.19-1-9-1.16-3.72,1.36-6.29,1.66-9.48l1.11,0c.53,1.17,1,2.34,1.83,4.06l2.66.56Z" transform="translate(0 0.07)"/><path class="cls-28" d="M832,358.46l-2.2,1.72-3.38-2.34c-.52,1-.79,2.28-1.46,2.49s-1.71-.67-2.69-1.11L820,360.7l-1.28-2.84c-1.22.87-2.57,1.85-4,2.73l-1.2-1.53c3-2,4-6.23,8.65-5.8C826.22,353.63,828.78,356.13,832,358.46Z" transform="translate(0 0.07)"/><path class="cls-29" d="M996.51,491.33c-5.66,1.13-11.51,2.33-17.38,3.44a2.15,2.15,0,0,1-1.8-.59,2.63,2.63,0,0,1,.14-1.93,1.79,1.79,0,0,1,1.08-1c5.52-1.51,11-3,16.59-4.41l.24,1C995.73,488.9,996.07,490,996.51,491.33Z" transform="translate(0 0.07)"/><path class="cls-30" d="M947.47,545c-3.81.31-3.8.68-3.7-3v-2.08h.11a26.91,26.91,0,0,0,0-3c-.28-2.53,1.5-2.92,3.46-3.19s2.74.87,2.92,2.58a31.54,31.54,0,0,0,.59,4.11C951.56,543.22,951,544.7,947.47,545Z" transform="translate(0 0.07)"/><path class="cls-31" d="M576.17,483.46a41.4,41.4,0,0,1,.71,6.45c0,.68-1.36,1.32-2.1,2a7.63,7.63,0,0,1-1.31-2.27,15.16,15.16,0,0,1,.27-3.26c.16-2.17.3-4.34-4.07-3.34,2-3.63,3.64-6.46,5.31-9.45C578.09,474.29,578.77,480.77,576.17,483.46Z" transform="translate(0 0.07)"/><path class="cls-32" d="M192.14,530.14h-32l-.18-.72c4.49-.75,9-2,13.45-2.11,6-.12,12,.65,17.91,1.12C191.56,528.45,191.73,529.24,192.14,530.14Z" transform="translate(0 0.07)"/><path class="cls-33" d="M736.78,539.56v.68l-25.29,1.24c.66-.8,1.29-2.36,2.26-2.59,7.31-1.74,14.68-2.37,22,.13A8.69,8.69,0,0,1,736.78,539.56Z" transform="translate(0 0.07)"/><path class="cls-34" d="M536.17,491c-.2.67-1.79,1-3,1.55v-20.1c4.6,2.8,4.89,10,1.22,11.91C537.83,485.88,536.87,488.57,536.17,491Z" transform="translate(0 0.07)"/><path class="cls-35" d="M458.09,483.82a24.91,24.91,0,0,1-2.87,1.08c.6,1.65,1.64,3,1.39,4.21-.3,1.43-1.67,2.65-2.58,4l-.67-.49V475.73c2.32,0,2.32,0,4,6.18l2.57.39A11.05,11.05,0,0,1,458.09,483.82Z" transform="translate(0 0.07)"/><path class="cls-36" d="M920.71,528.25c0,.6-1.1,1.62-1.62,1.58-.76-.06-2-.82-2.1-1.42-.48-3.38.25-6.9-2-10.1-.39-.55,1.27-3.36,2.48-3.77,2-.68,2.72,1.2,2.84,3s.23,3.78.34,5.67h-.17A34.47,34.47,0,0,1,920.71,528.25Z" transform="translate(0 0.07)"/><path class="cls-37" d="M556.77,490.68c0,.48-1.23,1.19-2,1.28-.54.06-1.71-.72-1.7-1.12,0-5.7.26-11.41.43-17.12l1.13-.42c.71.77,2,1.54,2,2.31,0,2.59-.48,5.19-.7,7.78a10,10,0,0,0,.32,1.76A38.21,38.21,0,0,1,556.77,490.68Z" transform="translate(0 0.07)"/><path class="cls-38" d="M596.37,480.79c0,2.27-.31,4.55-.46,6.83-.3,4.44-.29,4.44-5.53,2.88.86-.78,1.72-1.25,2.08-2a16,16,0,0,0,1.78-4.76c.06-.41-1.78-1.09-3.19-1.91v-6.72l.61-.06c.15,1.08.31,2.17.58,4.11a18.2,18.2,0,0,0,2.18-3.45,16.72,16.72,0,0,0,.42-3.7h1.09C596.12,474.94,596.37,477.86,596.37,480.79Z" transform="translate(0 0.07)"/><path class="cls-39" d="M515.31,484a61,61,0,0,1,.91,6.65c0,.51-1.16,1.48-1.77,1.47a2.32,2.32,0,0,1-1.66-1.59c0-5.89.1-11.79.2-17.68h1.08C516.16,476.67,518.87,480.45,515.31,484Z" transform="translate(0 0.07)"/><path class="cls-40" d="M969.63,497.09c-4.37,1.27-8.82,2.25-13.68,3.46l-1.58-1.13c.6-.61,1.08-1.55,1.8-1.78,4.13-1.33,8.29-2.58,12.5-3.66,1.5-.39,3.74-2.27,4.57.08S971.21,496.63,969.63,497.09Z" transform="translate(0 0.07)"/><path class="cls-41" d="M629,450.37c-3.16,1.18-5.26-.12-5.28-4.1s0-7.88,0-12.12c4.58.88,1.77,7,5.22,7.46-.63,1.57-1.69,3-1.69,4.53S628.37,448.92,629,450.37Z" transform="translate(0 0.07)"/><path class="cls-42" d="M621.77,448.14l-.87.44a22.58,22.58,0,0,1-2.13-4.22,53.53,53.53,0,0,1-1.68-8.76c-.09-.86,1.16-1.85,1.8-2.77,1,.84,2.68,1.63,2.75,2.53C621.93,439.61,621.77,443.88,621.77,448.14Z" transform="translate(0 0.07)"/><path class="cls-43" d="M416.51,492.24a1.66,1.66,0,0,1-1.32.89c-.55-.13-1.38-.76-1.38-1.19,0-4.13,0-8.27.29-12.39.08-.92,1.49-1.75,2.52-2.89C418.9,482.34,417.06,487.28,416.51,492.24Z" transform="translate(0 0.07)"/><path class="cls-44" d="M745.49,449.87l3.49,1.6c-.55,3.52-1.51,4-7.52,3.3,1.2-3.21,2.31-6.33,3.59-9.39.12-.3,1.29-.47,1.81-.28a4.38,4.38,0,0,1,1.57,1.41c.58.73,1,1.53,1.54,2.3-1,.18-2.07.38-3.12.5a4.15,4.15,0,0,1-1.14-.17C745.64,449.38,745.56,449.62,745.49,449.87Z" transform="translate(0 0.07)"/><path class="cls-45" d="M476.16,489.72c-.14,1.1-1.65,2-3,3.55V473.08c4.26,4.35,3.41,8.1.79,11.93l1.28-.16C475.58,486.48,476.37,488.16,476.16,489.72Z" transform="translate(0 0.07)"/><path class="cls-46" d="M921,541.57c-.26,1.06-2.27,1.73-3.49,2.57-.65-1.06-1.34-2.11-1.91-3.2-.16-.31,0-.79,0-1.19h-.11a17.18,17.18,0,0,1,.56-3.82,2.72,2.72,0,0,1,2-1.47c.84,0,2.22.7,2.38,1.33A12.42,12.42,0,0,1,921,541.57Z" transform="translate(0 0.07)"/><path class="cls-47" d="M899.86,534.52c-.64-4-1.37-7.6-1.68-11.18-.11-1.27.06-3.54,2.35-2.93.94.25,1.7,2.1,2,3.35.38,1.57,0,3.32.34,4.88C903.48,531.07,902.5,532.65,899.86,534.52Z" transform="translate(0 0.07)"/><path class="cls-48" d="M751.78,479a7,7,0,0,1-1.44.06c-1.71-.35-4.77-.55-4.87-1.16-.34-2.25.29-4.64.56-7,0-.08.13-.15.2-.22l.16.17.77,2.71,3.68-1.73a13.49,13.49,0,0,1,1.33,3.26A16.82,16.82,0,0,1,751.78,479Z" transform="translate(0 0.07)"/><path class="cls-49" d="M906.37,544.12l-.66.57c-.91-3-2.54-3.66-5.15-2.21-.36.2-2.23-1-2.4-1.75-.81-3.54.32-4.53,3.88-4.06.77.11,1.63-.45,3.07-.89C905.55,538.64,906,541.38,906.37,544.12Z" transform="translate(0 0.07)"/><path class="cls-50" d="M1347.76,464.75l-18.55-2.69C1333.21,458.91,1345.28,460.56,1347.76,464.75Z" transform="translate(0 0.07)"/><path class="cls-51" d="M720.74,456.08c-.38-.11-1.8-.07-2.41-.73-2.6-2.81-5-5.83-7.92-9.38,2.26-.28,3.46-.41,4.66-.6,1.73-.27,2.26.51,2.68,2C718.55,450.38,719.74,453.25,720.74,456.08Z" transform="translate(0 0.07)"/><path class="cls-52" d="M436.72,529.75l-.51.25a7.81,7.81,0,0,1-.2,2.34,2.16,2.16,0,0,1-1.48,1.21c-.82,0-2.09-.26-2.4-.81a25.75,25.75,0,0,1-2.33-5.62A2.39,2.39,0,0,1,431,525c1.06-.28,2.8-.35,3.36.26C435.44,526.49,435.95,528.22,436.72,529.75Z" transform="translate(0 0.07)"/><path class="cls-53" d="M616.37,473.43V491h-1.11a21.61,21.61,0,0,1-.45-2.83c0-2.56,1.25-5.23-1.26-7.54-.51-.48-.14-2.13.21-3.12A12.66,12.66,0,0,1,616.37,473.43Z" transform="translate(0 0.07)"/><path class="cls-54" d="M224.59,438.33c-.6,2.28-2.11,2-3.69,1-2.39-1.55-4.08-1.29-6.14.89-1.06,1.12-3.51,1-5.33,1.5l-.51-1.55,7.11-2.85c.12-.76.27-1.77.43-2.78,1,.54,2,1.12,3,1.61Z" transform="translate(0 0.07)"/><path class="cls-55" d="M42.8,307.09a40.38,40.38,0,0,1-1.09,5.06c-.4,1.44-1,2.84-1.6,4.72-2.22-.14-3.34-1.53-2.74-3.67a36.09,36.09,0,0,1,2.85-6.55c.28-.57,1.19-.84,1.82-1.25C42.31,306,42.87,306.57,42.8,307.09Z" transform="translate(0 0.07)"/><path class="cls-56" d="M119.37,452.64c0,.71-.8,2-1.39,2a37.9,37.9,0,0,1-5.68.1c-.49-4.75,1.84-6.78,6.06-5.34C119,449.67,119.37,451.53,119.37,452.64Z" transform="translate(0 0.07)"/><path class="cls-57" d="M1087.43,441.73c-2,.74-4.48-1-5-3.27-.11-.49-.2-1-.42-2.06.38-.37,1-1.47,1.62-1.46a10.07,10.07,0,0,1,3.82,1.06c.37.16.47,1.08.52,1.66C1088.09,439.06,1089.9,440.82,1087.43,441.73Z" transform="translate(0 0.07)"/><path class="cls-58" d="M754.18,539.11c-2.23,1.24-3.91,3-5.31,2.8-2.72-.37-5.28-1.8-7.87-2.87a1.88,1.88,0,0,1,.09-1.28c.85-.21,2-.61,2.61-.25,1.6,1,2.67.59,4.39,0C749.62,537,751.83,538.43,754.18,539.11Z" transform="translate(0 0.07)"/><path class="cls-59" d="M105.05,424.44l5.5,1.49c-5.75,2.49-7.45,1.06-6.28-4.42l3.49-.48-2.06-2.28a7.93,7.93,0,0,1,1.31-.52c2.36-.51,3.71.52,4.3,2.81l-6.45,2.5C104.93,423.84,105,424.14,105.05,424.44Z" transform="translate(0 0.07)"/><path class="cls-60" d="M155.93,529.11a5.29,5.29,0,0,1-.13.78H129.92v-.78Z" transform="translate(0 0.07)"/><path class="cls-61" d="M750.61,439.61c0,.57-.93,1.3-1.62,1.64a21.51,21.51,0,0,1-3.93,1.45,13.42,13.42,0,0,1-2.63.19,8,8,0,0,1,0-2.94,11.2,11.2,0,0,1,2-2.56l3.37,1,1.38-2.71h.68A16.7,16.7,0,0,1,750.61,439.61Z" transform="translate(0 0.07)"/><path class="cls-62" d="M476.37,529.19c-.42,1.48-.43,3-1.23,3.81-.57.57-2.2.17-3.36.21.19-2.53.33-5.07.69-7.58,0-.17,2.31-.47,2.55-.11A14.62,14.62,0,0,1,476.37,529.19Z" transform="translate(0 0.07)"/><path class="cls-63" d="M495.37,532.55a3.65,3.65,0,0,1-2.43.88c-.4,0-1.17-.87-1.2-1.37-.12-2.51,0-5,0-7.92C495.86,525.33,497.54,530.1,495.37,532.55Z" transform="translate(0 0.07)"/><path class="cls-64" d="M111.13,406.16c-1.23,2.38-3.19,3.26-5.39,2.29-.88-.39-1.6-2.29-1.45-3.39.39-3,3.21-2.81,5.89-3.46l-1,2.46Z" transform="translate(0 0.07)"/><path class="cls-65" d="M455.91,531.9c-.13.71-1.48,1.46-2.4,1.65-.4.09-1.34-1.12-1.61-1.88a8.18,8.18,0,0,1-.07-2.67h.09a6.2,6.2,0,0,1,0-2.07,11.93,11.93,0,0,1,1.42-2.2c.85.61,2.27,1.11,2.44,1.86A13.19,13.19,0,0,1,455.91,531.9Z" transform="translate(0 0.07)"/><path class="cls-66" d="M536.28,527.52a22.94,22.94,0,0,0-.33,3.27c.14,2.39-1,3-3.66,2.49a32.85,32.85,0,0,1-.24-6,3.56,3.56,0,0,1,2.2-2.53C536.31,524.37,536.37,526,536.28,527.52Z" transform="translate(0 0.07)"/><path class="cls-67" d="M455.63,510.88a3.71,3.71,0,0,0-.35,3.23c.41,1.58-.38,3.45-.65,5.2l-1.19-.12V504.44a4.62,4.62,0,0,1,2.36,6.09Q455.72,510.71,455.63,510.88Z" transform="translate(0 0.07)"/><path class="cls-68" d="M933.2,512.19c-6.55,5.6-7.3,13.13-8.4,20.64-.89-4.35-.17-8.84,2-14,.73-1.71,1-3.58,1.73-5.3C929.37,511.45,931.14,511.52,933.2,512.19Z" transform="translate(0 0.07)"/><path class="cls-69" d="M722.78,438.8c-2.57,1.9-4.22,3.56-6.24,4.45a6,6,0,0,1-4.53-.31c-.81-.4-.85-2.19-1.1-3Z" transform="translate(0 0.07)"/><path class="cls-70" d="M416.68,530c0,.49.11,1.12-.15,1.44a23.26,23.26,0,0,1-2.23,2.21,14.32,14.32,0,0,1-1.77-2.23c-.26-.46,0-1.16,0-1.75l-.7-.45c.89-1.24,1.81-3.55,2.67-3.53C417.21,525.7,416.66,528.13,416.68,530Z" transform="translate(0 0.07)"/><path class="cls-71" d="M891.66,533a5.73,5.73,0,0,1-3.41.84c-.41,0-.73-1.61-1-2.51a7.46,7.46,0,0,1,0-1.77l-.56-.24q1-2,1.94-4.11c.73,1.27,1.47,2.53,2.17,3.81a4.66,4.66,0,0,1,.54,1.38C891.53,531.27,892,532.75,891.66,533Z" transform="translate(0 0.07)"/><path class="cls-72" d="M393.86,397.59c-1.08,1-4,.38-6,.5.06-1.31-.3-2.85.31-3.86.51-.84,2.15-1.06,3.49-1.64C391.72,394.53,396.84,394.72,393.86,397.59Z" transform="translate(0 0.07)"/><path class="cls-73" d="M515.67,531.55a3.32,3.32,0,0,1-2.54.52,2.13,2.13,0,0,1-1.3-1.6c-.06-1.94.16-3.89.28-6.09C515.6,525,517.59,529.66,515.67,531.55Z" transform="translate(0 0.07)"/><path class="cls-74" d="M556.22,529.42a.61.61,0,0,1-.06.29c-.55,1.34.17,3.73-2.3,3.45-.68-.08-1.08-2.36-1.68-3.8a37.54,37.54,0,0,1,1.61-4.38c.12-.25,1.9-.13,1.92,0C556,526.43,556.08,527.93,556.22,529.42Z" transform="translate(0 0.07)"/><path class="cls-75" d="M433.86,484.08c-.78-1.5-.45-7,.65-7.79a2.15,2.15,0,0,1,2,.17C438.74,478.92,437.27,483,433.86,484.08Z" transform="translate(0 0.07)"/><path class="cls-76" d="M1006.26,458.31l-4.34-.4a3.5,3.5,0,0,0-.08-.91l2.77-2.3-5.43-4.82,6.11.65C1005.56,452.73,1005.88,455.22,1006.26,458.31Z" transform="translate(0 0.07)"/><path class="cls-77" d="M493.11,449.74c-4.54,2.33-9,2.41-13.29-.18C484.27,449.41,488.75,448.56,493.11,449.74Z" transform="translate(0 0.07)"/><path class="cls-78" d="M1253.37,429.31l-20,4.06c-.11-.38-.23-.76-.34-1.13l20.12-3.87A8,8,0,0,0,1253.37,429.31Z" transform="translate(0 0.07)"/><path class="cls-79" d="M120.25,529.86H101.83C103,528.34,113.85,528.06,120.25,529.86Z" transform="translate(0 0.07)"/><path class="cls-80" d="M716.37,472.22v3.7c-3-.87-4.65.16-4.6,3.27-2.07-1.84-2.11-5.15-.15-9.35.15,1,.25,1.61.35,2.23s.22,1.32.36,2.22Z" transform="translate(0 0.07)"/><path class="cls-81" d="M628.51,479.33c-2.07,3-.39,6.06-1.4,8.9a7.56,7.56,0,0,0-.25,1.29h-.59v-15.8l.82-.21C627.63,475.47,629.31,478.19,628.51,479.33Z" transform="translate(0 0.07)"/><path class="cls-82" d="M515.85,509.61c-.07.65-1.47,1.17-2.68,2.06v-9.34C516.74,504.65,516.09,507.27,515.85,509.61Z" transform="translate(0 0.07)"/><path class="cls-83" d="M1081.63,440.7l-1.42.6-5.31-5.8c.1-.27.2-.55.29-.83,1.69.21,4.06-.16,4.89.76C1081.22,436.67,1081.17,438.89,1081.63,440.7Z" transform="translate(0 0.07)"/><path class="cls-84" d="M1199.73,396.88c.06.2-1.09.73-1.18.79a34.42,34.42,0,0,1-5-.59c-.74-.21-1.27-1.09-1.9-1.67.75-.55,1.49-1.55,2.23-1.54a12.33,12.33,0,0,1,4.48,1C1199,395.1,1199.5,396.12,1199.73,396.88Z" transform="translate(0 0.07)"/><path class="cls-85" d="M438.21,489.76c-1.16,1.37-1.78,2.83-2.76,3.11a1.71,1.71,0,0,1-2.19-2.28,36.56,36.56,0,0,1,1.84-4.47Z" transform="translate(0 0.07)"/><path class="cls-86" d="M575,504.79v14.48h-1.11c-.83-4.83-.19-9.66-.08-14.49Z" transform="translate(0 0.07)"/><path class="cls-87" d="M475.7,510.21a2.89,2.89,0,0,1-2,1c-.32,0-1-.94-1-1.47,0-1.83.21-3.67.38-6C475.91,505.48,476.89,508.4,475.7,510.21Z" transform="translate(0 0.07)"/><path class="cls-88" d="M536,515.33c-.11,1.34-1.13,2.62-1.76,3.92l-2.39-3.6,2.4-3.24C534.9,513.38,536.1,514.4,536,515.33Z" transform="translate(0 0.07)"/><path class="cls-89" d="M495.84,508.55c-.08,1-1.2,1.94-1.86,2.9l-1-.63v-6.7C496.3,504.64,496,506.84,495.84,508.55Z" transform="translate(0 0.07)"/><path class="cls-90" d="M496.17,482.53c-.34.67-1.35,1.68-1.73,1.56-.79-.24-1.89-1.11-1.92-1.76a31.78,31.78,0,0,1,.69-5.54C494.94,478.87,497.5,479.9,496.17,482.53Z" transform="translate(0 0.07)"/><path class="cls-91" d="M497.07,488.63,494,492.34c-.43-.74-1.32-1.56-1.21-2.22a23.43,23.43,0,0,1,1.53-4.32Z" transform="translate(0 0.07)"/><path class="cls-92" d="M881.37,538.06c-3.71,1.75-7.59.65-11.43.3a11.07,11.07,0,0,0-.11-1.13l11.48-.48Z" transform="translate(0 0.07)"/><path class="cls-93" d="M937.16,461.68l-1.79,1.59a39.72,39.72,0,0,1-3.46-3.79c-.14-.19,1.08-1.28,1.67-2Z" transform="translate(0 0.07)"/><path class="cls-94" d="M1003.78,464.45a3.08,3.08,0,0,1-.52-2c.11-.61.74-1.14,1.15-1.7.49.51,1.31,1,1.41,1.53.3,1.91.35,3.86.53,6.18l-3.88.23C1004.77,467.64,1004.89,466.28,1003.78,464.45Z" transform="translate(0 0.07)"/><path class="cls-95" d="M1113.8,464.15c-.48.31-2.6-.64-3-1.44-1.34-2.85,1.81-2.49,3.24-3.9C1115.42,461,1115.75,462.89,1113.8,464.15Z" transform="translate(0 0.07)"/><path class="cls-96" d="M1012,471.42l-1,.45c-1.06-1.17-2.12-2.33-3.17-3.5l1.11-.1c.46-2.25.93-4.5,1.39-6.75l.38-.07Z" transform="translate(0 0.07)"/><path class="cls-97" d="M512.7,519.59c0-2.24-.06-4.07.06-5.88a1.54,1.54,0,0,1,1.09-1.08,2,2,0,0,1,1.48.77C516.46,515.11,515.37,518.27,512.7,519.59Z" transform="translate(0 0.07)"/><path class="cls-98" d="M345.37,493.32a2.78,2.78,0,0,1-2.11-.65,59.78,59.78,0,0,1,.25-6C345.92,487.81,346.92,492.14,345.37,493.32Z" transform="translate(0 0.07)"/><path class="cls-99" d="M556,518.45a1.71,1.71,0,0,1-1.33.92c-.45,0-1.25-.58-1.28-.94-.12-1.94-.06-3.89-.06-6.39C556.77,514,556.37,516.23,556,518.45Z" transform="translate(0 0.07)"/><path class="cls-100" d="M410.43,407.11a38,38,0,0,1-1.14,5.43l-1.82-.24c-.23-1.81-.46-3.62-.79-6.24C408.37,406.51,410.43,406.9,410.43,407.11Z" transform="translate(0 0.07)"/><path class="cls-101" d="M363.58,395l-12.64,3.11c-.13-.4-.26-.81-.38-1.21C355.2,397.42,358.37,392.47,363.58,395Z" transform="translate(0 0.07)"/><path class="cls-102" d="M536,509c.06.52-1,1.15-1.63,1.73-.43-.57-1.22-1.13-1.24-1.71-.08-1.88.14-3.76.24-5.65l1.39-.12A47.91,47.91,0,0,1,536,509Z" transform="translate(0 0.07)"/><path class="cls-103" d="M396.65,530.44a11.35,11.35,0,0,1-1.22,3.27l-1-.49v-7.74C397.47,526.63,396.71,528.76,396.65,530.44Z" transform="translate(0 0.07)"/><path class="cls-104" d="M492.6,519.42c0-1.89-.1-3.45,0-5,0-.54.74-1,1.13-1.52.51.42,1.23.74,1.49,1.27C496.37,516.25,495.37,518.55,492.6,519.42Z" transform="translate(0 0.07)"/><path class="cls-105" d="M472.9,519.84v-6.59l.86-.44c.59.81,1.59,1.58,1.66,2.42C475.57,516.85,476.1,518.9,472.9,519.84Z" transform="translate(0 0.07)"/><path class="cls-106" d="M752,481.25c-.16,2.11-.21,4.24-.56,6.32-.08.43-1.31.67-2.84,1.37.66-3.21,1.14-5.52,1.62-7.84Z" transform="translate(0 0.07)"/><path class="cls-107" d="M435.73,516.3c0,.49.27,1,.1,1.46a14.29,14.29,0,0,1-1.3,2.13,17.27,17.27,0,0,1-1.51-2.14,2,2,0,0,1,0-1.46c.36-1.12.87-2.2,1.32-3.29l2.06,2.89Z" transform="translate(0 0.07)"/><path class="cls-108" d="M712.46,531a2.24,2.24,0,0,1-.87,1.42c-.15.12-1-.2-1.21-.52-.87-1.17-.06-7.29,1.55-9.13C712.15,525.89,712.37,528.43,712.46,531Z" transform="translate(0 0.07)"/><path class="cls-109" d="M435.72,510.66c-.34.32-2.24-.12-2.27-.34a45.37,45.37,0,0,1-.08-5.32C436,506.13,437.14,509.29,435.72,510.66Z" transform="translate(0 0.07)"/><path class="cls-110" d="M417.07,508.63l-2,3.09c-.48-1-1.35-2-1.33-3s.94-2,1.46-3Z" transform="translate(0 0.07)"/><path class="cls-111" d="M966.59,547.67l-.24,1.41a19.15,19.15,0,0,1-4.86-.15c-.46-.13-.39-2.07-.69-4Z" transform="translate(0 0.07)"/><path class="cls-112" d="M696.37,479.91h-1v-9.29C697,473.67,697.68,476.77,696.37,479.91Z" transform="translate(0 0.07)"/><path class="cls-113" d="M1040.08,469.42c-.24.27-.48.55-.73.82-.62-.6-1.75-1.2-1.76-1.82a35.07,35.07,0,0,1,.83-7.69C1039,463.63,1039.53,466.52,1040.08,469.42Z" transform="translate(0 0.07)"/><path class="cls-114" d="M323.2,486.42c0-2.4-.06-4.11,0-5.8a1.51,1.51,0,0,1,.93-1c.51.07,1.33.48,1.39.84C325.86,482.5,325.88,484.48,323.2,486.42Z" transform="translate(0 0.07)"/><path class="cls-115" d="M1119.26,524.18a36.26,36.26,0,0,1-4,3.54,9,9,0,0,1-3,.7l-.38-.72a55.48,55.48,0,0,1,5.07-4.14C1117.37,523.25,1118.63,524,1119.26,524.18Z" transform="translate(0 0.07)"/><path class="cls-116" d="M346.78,482.07c-.83,1.4-1.49,3.13-1.88,3.07-2.6-.35-1.22-2.61-1.65-4-.16-.51.64-1.3,1-2Z" transform="translate(0 0.07)"/><path class="cls-117" d="M935.09,545.15c-7.41,1.91-7.48,1.89-6.71-2Z" transform="translate(0 0.07)"/><path class="cls-118" d="M663,427.23c-.26.48-1.72.42-2.65.51-1.59.14-3.17.21-4.76.31v-.68a24.87,24.87,0,0,0,3.76-1.17,27.91,27.91,0,0,0,3.55-2.46C663,425.32,663.37,426.48,663,427.23Z" transform="translate(0 0.07)"/><path class="cls-119" d="M285.37,485.35a1.64,1.64,0,0,1-1.28.53,1.38,1.38,0,0,1-1-.94c-.11-1.52,0-3.06,0-5.11C285.17,481,286.24,484.3,285.37,485.35Z" transform="translate(0 0.07)"/><path class="cls-120" d="M665.66,532.87h-1.37q-.15-3.42-.32-6.82h1.51C667.37,528.3,665.84,530.59,665.66,532.87Z" transform="translate(0 0.07)"/><path class="cls-121" d="M121.66,532.29c-.42,1.45-.73,2.5-1.32,4.55-1.19-3.66-2.61-5.13-5.81-3.42-.79.42-2.35-.5-3.57-.8v-.33Z" transform="translate(0 0.07)"/><path class="cls-122" d="M746.83,524.41v8.28a5.71,5.71,0,0,1-.21-8.07Z" transform="translate(0 0.07)"/><path class="cls-123" d="M553.65,511.21V504.4C556.57,506.07,556.59,508.87,553.65,511.21Z" transform="translate(0 0.07)"/><path class="cls-124" d="M623.68,432.13l-8.28-.35C619,426.1,620.73,431.12,623.68,432.13Z" transform="translate(0 0.07)"/><path class="cls-125" d="M1061.62,449.89c-1,.43-2,1.17-3,1.18-.84,0-1.68-.87-2.52-1.36l2.72-1.77Z" transform="translate(0 0.07)"/><path class="cls-126" d="M1120.46,448.86c-2.22,1-4.44,2.08-6.9.34v-1.1l6.87-.41A5.1,5.1,0,0,0,1120.46,448.86Z" transform="translate(0 0.07)"/><path class="cls-127" d="M1019.37,450.48l-2.68,1.92-2.88-2c.9-.42,1.81-1.19,2.69-1.16A8.94,8.94,0,0,1,1019.37,450.48Z" transform="translate(0 0.07)"/><path class="cls-128" d="M365.37,527.69a21.71,21.71,0,0,1-.71,3.12c0,.12-1.75,0-1.86-.26a39.47,39.47,0,0,1-1.21-4.45l1-.16.51,3.18,1.47-1.65Z" transform="translate(0 0.07)"/><path class="cls-129" d="M416.09,517c0,.88-.78,1.76-1.21,2.63L413,516.81l2-2.8A9.24,9.24,0,0,1,416.09,517Z" transform="translate(0 0.07)"/><path class="cls-130" d="M912.72,543.7l-4.27,2c-.57-2.94.3-3.94,2.28-3.6C911.47,542.23,912.06,543.14,912.72,543.7Z" transform="translate(0 0.07)"/><path class="cls-131" d="M665.53,477.82h-1.12V471C665.77,473.18,667,475.35,665.53,477.82Z" transform="translate(0 0.07)"/><path class="cls-132" d="M376,413.3c0,.7-1,1.37-1.61,2.06a11.17,11.17,0,0,1-2-2.45c-.15-.38.78-1.18,1.69-2.45C375.06,411.82,376,412.57,376,413.3Z" transform="translate(0 0.07)"/><path class="cls-133" d="M1033.37,450.31l-2.68,1.78-2.88-1.94c.89-.39,1.79-1.12,2.65-1.08A9.39,9.39,0,0,1,1033.37,450.31Z" transform="translate(0 0.07)"/><path class="cls-134" d="M890.37,540.21l-2.06,1.66a11,11,0,0,1-1.3-3c-.08-.62.74-1.35,1.16-2Z" transform="translate(0 0.07)"/><path class="cls-135" d="M358,359.73v8.09h-.77v-8.1Z" transform="translate(0 0.07)"/><path class="cls-136" d="M356.69,525.08c-3.5,3.48-3.75,3.49-5.69-.31Z" transform="translate(0 0.07)"/><path class="cls-137" d="M404.37,406.51l-1,3.79-1.06.21c-.49-1.08-1.36-2.18-1.33-3.25,0-.55,1.62-1.06,2.51-1.59Z" transform="translate(0 0.07)"/><path class="cls-138" d="M1047.37,450.06,1044.7,452,1042,450c.89-.4,1.78-1.12,2.66-1.11A7.89,7.89,0,0,1,1047.37,450.06Z" transform="translate(0 0.07)"/><path class="cls-139" d="M1090.37,440.74c-.34-2-.67-3.88-1-6C1092.47,436.14,1092.86,438.91,1090.37,440.74Z" transform="translate(0 0.07)"/><path class="cls-140" d="M681.11,473.24v6.42h-1V473.2Z" transform="translate(0 0.07)"/><path class="cls-141" d="M991.73,462.65c-.11.66-1,1.21-1.47,1.8l-2.18-3.4C991,460.13,992,460.8,991.73,462.65Z" transform="translate(0 0.07)"/><path class="cls-142" d="M1075.67,449.58c-.37.39-.75,1.11-1.11,1.1-1.53,0-3.59,1-4.42-1.84a6.84,6.84,0,0,1,2.1-.3A35.53,35.53,0,0,1,1075.67,449.58Z" transform="translate(0 0.07)"/><path class="cls-143" d="M711.66,481.13v6.22h-.83v-6.18Z" transform="translate(0 0.07)"/><path class="cls-144" d="M664.47,488.56V482h.93C665.37,484.27,666.71,486.59,664.47,488.56Z" transform="translate(0 0.07)"/><path class="cls-145" d="M1104.17,449.28a7.8,7.8,0,0,1-2.64.84A7.64,7.64,0,0,1,1099,449l2.58-1.61Z" transform="translate(0 0.07)"/><path class="cls-146" d="M746.86,480.59c-.14,2.23-.27,4.46-.41,6.68h-.9v-6.69Z" transform="translate(0 0.07)"/><path class="cls-147" d="M325,493.94c-2.33-.73-2.66-2.58-1.41-5.73l.89-.08C324.63,490,324.8,491.88,325,493.94Z" transform="translate(0 0.07)"/><path class="cls-148" d="M1089.42,444.29h-6.37v-.87h6.32C1089.37,443.71,1089.42,444,1089.42,444.29Z" transform="translate(0 0.07)"/><path class="cls-149" d="M7.47,457.49c.1.1-.87,1.13-1.34,1.73L3.37,456.7l1.37-1.4A22,22,0,0,1,7.47,457.49Z" transform="translate(0 0.07)"/><path class="cls-150" d="M342.74,520v-5.62C345.43,517.28,345.44,518.59,342.74,520Z" transform="translate(0 0.07)"/><path class="cls-151" d="M448.91,525.07c-4.39,2.35-6,2.3-7,0Z" transform="translate(0 0.07)"/><path class="cls-152" d="M1090,449.77a20.79,20.79,0,0,1-3.93.7c-.59,0-1.18-.87-1.76-1.35l.55-.9,5,.27Z" transform="translate(0 0.07)"/><path class="cls-153" d="M324,506.85v4.77h-1.44c.11-1.59.23-3.17.35-4.76Z" transform="translate(0 0.07)"/><path class="cls-154" d="M752.46,528.11a7,7,0,0,1-.15,2.07,19.21,19.21,0,0,1-3.4.1c-.06-.52-.11-1-.16-1.57Z" transform="translate(0 0.07)"/><path class="cls-155" d="M942.61,504.24l-5.5,1.26-.24-1c1.71-1.07,3.38-2.38,5.52-1.25C942.46,503.59,942.54,503.92,942.61,504.24Z" transform="translate(0 0.07)"/><path class="cls-156" d="M677,525a25.51,25.51,0,0,1-3.38,1.52c-.18.06-.74-1-1.13-1.51l3.81-1.45C676.48,524.06,676.71,524.54,677,525Z" transform="translate(0 0.07)"/><path class="cls-157" d="M1206.28,438.09l.69-.1h-.12l-.5.12h-.06Z" transform="translate(0 0.07)"/><path class="cls-158" d="M1217.84,436.4,1207,438l10.65-2.6C1217.7,435.72,1217.77,436.06,1217.84,436.4Z" transform="translate(0 0.07)"/><path class="cls-159" d="M284,520.8c-2.71-1.24-2.83-1.89-.54-4.47C283.6,517.7,283.77,519.07,284,520.8Z" transform="translate(0 0.07)"/><path class="cls-160" d="M627,529.7l-1.29.15-.36-5.54,1.17-.13Z" transform="translate(0 0.07)"/><path class="cls-161" d="M696,525.82v5.92H695v-5.91Z" transform="translate(0 0.07)"/><path class="cls-162" d="M404.12,417.89v.32H388.76v-.32Z" transform="translate(0 0.07)"/><path class="cls-163" d="M337.66,359.24v7.9H337v-7.91Z" transform="translate(0 0.07)"/><path class="cls-164" d="M151,400.42l-.18.84-7.91-1.51.18-.91Z" transform="translate(0 0.07)"/><path class="cls-165" d="M636.55,443.11c-1.09.93-1.66,1.75-2.4,1.91-.44.1-1.13-.82-1.71-1.28a8.82,8.82,0,0,1,2-1.56C634.79,442,635.49,442.62,636.55,443.11Z" transform="translate(0 0.07)"/><path class="cls-166" d="M322.52,526.47V532h-1.2c.11-1.85.23-3.69.34-5.54Z" transform="translate(0 0.07)"/><path class="cls-167" d="M264.25,511.52l-1.47.07c-.08-1.4-.17-2.8-.25-4.2H264C264.11,508.74,264.18,510.13,264.25,511.52Z" transform="translate(0 0.07)"/><path class="cls-168" d="M932.25,506.91l-7.43,2.71-.36-.88,7.38-2.82Z" transform="translate(0 0.07)"/><path class="cls-169" d="M925.92,546.39l-1.53-.13.42-5.57h.81Z" transform="translate(0 0.07)"/><path class="cls-170" d="M496.86,476.69c-4.21-1.34-4.49-2-2.33-4Z" transform="translate(0 0.07)"/><path class="cls-171" d="M227.51,430.58,226,433.34l-3.08-2.06a3.06,3.06,0,0,1,.16-.7Z" transform="translate(0 0.07)"/><path class="cls-172" d="M991.44,445.75l-4.77,1.38c.69-3.28,2.64-2.6,4.48-2.31C991.24,445.13,991.37,445.44,991.44,445.75Z" transform="translate(0 0.07)"/><path class="cls-173" d="M818,291.73v5.64l-1.14-.13c.24-1.84.47-3.68.71-5.52Z" transform="translate(0 0.07)"/><path class="cls-174" d="M1008,443.5l-4.23-.32,1.8-3.36Z" transform="translate(0 0.07)"/><path class="cls-175" d="M343.07,526.91v5.64h-1.33c.16-1.87.31-3.73.47-5.6Z" transform="translate(0 0.07)"/><path class="cls-176" d="M283.95,507.54c-.08,1.47-.16,2.93-.23,4.39H282.6v-4.39Z" transform="translate(0 0.07)"/><path class="cls-177" d="M957.59,543.42v6.18l-1-.1q.18-3.06.34-6.13Z" transform="translate(0 0.07)"/><path class="cls-178" d="M1030.78,444.91l-.36,1.2-4.38-1c.15-.51.31-1,.47-1.53Z" transform="translate(0 0.07)"/><path class="cls-179" d="M752,508.25h-1V503h.44Z" transform="translate(0 0.07)"/><path class="cls-180" d="M915.11,484.17l5.31-2.82-.09.88A32.73,32.73,0,0,1,925,484a10.38,10.38,0,0,1,2.25,2.42c-.78.36-1.56.74-2.35,1.08-1.12.49-2.5.72-3.32,1.49-1.7,1.6-2.69,1.5-3.7-.58A41.41,41.41,0,0,0,915.11,484.17Z" transform="translate(0 0.07)"/><path class="cls-181" d="M257.37,442.55c2.82-3.61,6.43-3,10.36-2.68,5,.48,10.12.12,15.21.59h-13l1.55,2.15c-.28.09-.56.27-.78.22a44.48,44.48,0,0,0-5.15-1.17c-1.14-.14-2.82-.17-3.42.48C260.48,443.9,259,443.17,257.37,442.55Z" transform="translate(0 0.07)"/><path class="cls-182" d="M235.68,443.56c5.61.15,11.15-2.32,16.8-1.09v1.09Z" transform="translate(0 0.07)"/><path class="cls-183" d="M419,415.91c2.54-2,4.91-.19,7.32,1.08h-7.22Z" transform="translate(0 0.07)"/><path class="cls-184" d="M901.66,494.31l.54,6.29-1.3.09c-1.83-2-.71-4.17-.47-6.3Z" transform="translate(0 0.07)"/><path class="cls-185" d="M246.37,438.6c3.23-2.36,4.74-2.19,7.14.91Z" transform="translate(0 0.07)"/><path class="cls-186" d="M248.32,428.61l-5.71,1.33-.33-1.19,5.68-1.5Z" transform="translate(0 0.07)"/><path class="cls-187" d="M194.3,430.13h-4.38l-.09-.86,4.45-.36Z" transform="translate(0 0.07)"/><path class="cls-188" d="M264.28,426.62l8.21.79-.13,1.08-8.19-1.21Z" transform="translate(0 0.07)"/><path class="cls-189" d="M865.51,564c1.37,5.18.93,19.8-.9,21.58V564Z" transform="translate(0 0.07)"/><path class="cls-190" d="M852,562.83v7.54h-.67V562.8Z" transform="translate(0 0.07)"/><path class="cls-191" d="M1108.16,490.26l4.59,5.21-.63.61c-6.69-3.59-11.29-10.88-20.31-10.34v-.87a13.63,13.63,0,0,1,2.78-1c4.34-.52,8.7-.94,13.06-1.36,4.55-.44,4.74-.29,4.8,4.18a30.57,30.57,0,0,1-.39,3.65l-3.61-.87Z" transform="translate(0 0.07)"/><path class="cls-192" d="M998.77,502.54l-4.92-3v-.62a14.3,14.3,0,0,1,4.13.13C998.49,499.23,998.45,500.9,998.77,502.54Z" transform="translate(0 0.07)"/></svg>